<?xml version="1.0" standalone="no"?>
<!DOCTYPE svg PUBLIC "-//W3C//DTD SVG 20010904//EN"
 "http://www.w3.org/TR/2001/REC-SVG-20010904/DTD/svg10.dtd">
<svg version="1.0" xmlns="http://www.w3.org/2000/svg"
 width="4000.000000pt" height="3000.000000pt" viewBox="0 0 4000.000000 3000.000000"
 preserveAspectRatio="xMidYMid meet">

<g transform="translate(0.000000,3000.000000) scale(0.100000,-0.100000)"
fill="#000000" stroke="none">
<path d="M20193 23260 c-13 -5 -58 -39 -100 -76 -101 -85 -136 -102 -339 -164
-192 -58 -275 -101 -369 -191 -33 -31 -105 -83 -160 -115 -54 -33 -113 -73
-130 -90 -18 -17 -87 -117 -155 -223 -127 -197 -172 -251 -291 -348 -79 -63
-88 -77 -119 -183 -23 -81 -48 -113 -133 -178 -58 -44 -77 -77 -77 -132 0 -33
7 -47 38 -78 60 -60 121 -85 192 -80 74 5 107 30 206 153 42 52 102 112 145
145 40 30 83 70 96 88 22 33 28 49 88 216 42 118 57 131 199 166 225 57 301
110 381 266 48 95 138 189 216 227 41 21 85 31 184 42 263 31 392 89 426 193
17 50 6 159 -20 210 -63 123 -185 189 -278 152z m138 -117 c50 -46 82 -106 83
-159 3 -112 -82 -155 -376 -194 -127 -16 -157 -23 -210 -52 -84 -44 -173 -136
-227 -233 -92 -165 -140 -200 -345 -250 -61 -15 -121 -33 -135 -40 -58 -30
-90 -84 -140 -237 -41 -123 -59 -150 -152 -220 -45 -34 -96 -84 -127 -125 -81
-109 -125 -147 -168 -146 -44 1 -118 49 -122 80 -2 15 10 30 46 56 58 43 127
116 135 143 51 176 39 155 139 239 119 99 135 118 272 331 64 98 133 197 154
219 21 22 79 62 128 90 49 27 116 75 149 106 83 78 169 131 256 158 321 97
346 108 462 205 94 80 118 84 178 29z"/>
<path d="M16924 21371 c-197 -31 -446 -195 -630 -414 -183 -218 -312 -466
-358 -690 -20 -94 -20 -264 -2 -335 17 -64 54 -127 98 -168 54 -52 380 -285
426 -306 64 -29 164 -34 258 -13 169 36 348 150 521 329 142 147 227 268 317
451 105 215 121 274 121 460 0 143 -1 153 -28 210 -36 76 -40 80 -232 242 -88
75 -171 148 -185 163 -50 54 -195 88 -306 71z m180 -95 c207 -87 218 -425 24
-796 -50 -96 -108 -191 -149 -244 -35 -46 -165 -188 -199 -219 -175 -156 -345
-244 -491 -255 -120 -8 -199 34 -249 133 -94 185 -17 525 186 829 96 143 117
169 219 271 90 90 210 181 305 230 111 58 279 82 354 51z m463 -414 c41 -85
45 -213 9 -353 -33 -129 -137 -344 -233 -479 -143 -200 -369 -395 -544 -468
-158 -65 -260 -62 -369 13 -103 71 -127 93 -110 98 8 2 47 12 85 21 120 28
251 101 380 209 33 28 67 56 75 63 19 16 84 -1 154 -40 61 -34 61 -17 0 80
l-46 74 49 62 c111 140 232 351 264 457 l12 40 65 7 c35 3 96 4 133 0 44 -4
69 -2 69 4 0 11 -86 77 -164 126 -25 16 -47 33 -48 39 -2 5 -2 67 0 137 l3
128 94 -81 c73 -62 100 -93 122 -137z"/>
<path d="M16830 20856 c0 -2 7 -7 16 -10 8 -3 12 -2 9 4 -6 10 -25 14 -25 6z"/>
<path d="M16880 20821 c0 -6 4 -13 10 -16 6 -3 7 1 4 9 -7 18 -14 21 -14 7z"/>
<path d="M16541 20734 c-24 -25 -42 -47 -40 -49 2 -2 26 19 53 46 27 27 45 49
40 48 -5 0 -29 -20 -53 -45z"/>
<path d="M16905 20700 c3 -5 8 -10 11 -10 2 0 4 5 4 10 0 6 -5 10 -11 10 -5 0
-7 -4 -4 -10z"/>
<path d="M16435 20599 c-4 -6 -5 -12 -2 -15 2 -3 7 2 10 11 7 17 1 20 -8 4z"/>
<path d="M16375 20490 c-3 -5 -1 -10 4 -10 6 0 11 5 11 10 0 6 -2 10 -4 10 -3
0 -8 -4 -11 -10z"/>
<path d="M16188 20453 c7 -3 16 -2 19 1 4 3 -2 6 -13 5 -11 0 -14 -3 -6 -6z"/>
<path d="M16740 20349 c0 -5 5 -7 10 -4 6 3 10 8 10 11 0 2 -4 4 -10 4 -5 0
-10 -5 -10 -11z"/>
<path d="M16446 20274 c-9 -23 -4 -24 17 -2 13 14 14 18 3 18 -8 0 -17 -7 -20
-16z"/>
<path d="M16370 20250 c0 -6 8 -20 18 -31 11 -11 19 -14 18 -7 0 16 -36 52
-36 38z"/>
<path d="M16755 20239 c-4 -6 -5 -12 -2 -15 2 -3 7 2 10 11 7 17 1 20 -8 4z"/>
<path d="M16553 20215 c0 -7 6 -11 14 -8 7 3 13 6 13 8 0 2 -6 5 -13 8 -8 3
-14 -1 -14 -8z"/>
<path d="M17414 20486 c-10 -26 4 -48 28 -44 17 2 23 10 23 28 0 18 -6 26 -23
28 -13 2 -25 -3 -28 -12z"/>
<path d="M17140 20175 c-17 -20 -5 -45 20 -45 11 0 23 7 26 15 6 15 -11 45
-26 45 -4 0 -13 -7 -20 -15z"/>
<path d="M16535 19611 c-10 -17 4 -31 31 -31 19 0 25 5 22 18 -4 19 -43 29
-53 13z"/>
<path d="M23367 21006 c-61 -22 -107 -65 -134 -124 -34 -72 -28 -135 22 -262
56 -139 54 -186 -8 -310 -30 -62 -47 -108 -47 -131 0 -34 -24 -109 -35 -109
-3 0 -29 14 -58 30 -99 56 -201 36 -251 -50 -30 -51 -26 -152 12 -336 38 -179
38 -193 10 -229 -20 -25 -26 -27 -79 -23 -47 3 -69 12 -120 46 -97 66 -125 59
-176 -42 -53 -107 -51 -106 -147 -99 -120 8 -162 -19 -228 -151 -116 -229 40
-419 331 -403 239 13 430 140 551 365 75 142 87 152 202 166 51 7 103 19 116
27 44 27 61 83 70 234 5 85 14 152 23 170 10 22 36 41 99 72 99 49 149 98 193
192 42 88 42 169 2 310 l-29 103 23 90 c31 116 25 185 -23 283 -47 94 -90 143
-150 171 -57 27 -112 30 -169 10z m117 -86 c35 -13 79 -63 116 -132 42 -78 47
-128 21 -214 -28 -93 -27 -143 5 -245 32 -102 35 -188 9 -242 -33 -70 -107
-140 -173 -165 -119 -45 -145 -98 -157 -322 -8 -147 -13 -155 -102 -164 -151
-15 -184 -40 -273 -209 -99 -188 -276 -312 -460 -324 -94 -7 -166 9 -219 48
-47 33 -71 75 -71 121 0 37 39 127 76 175 l25 33 99 -3 c97 -2 99 -2 130 28
17 16 43 54 57 85 15 30 28 57 29 59 2 1 18 -9 37 -23 48 -37 110 -56 181 -56
79 0 123 23 153 80 28 53 29 104 3 225 -11 50 -27 133 -36 186 -16 93 -16 98
2 135 16 34 24 39 56 42 26 2 48 -4 76 -23 53 -35 96 -46 132 -34 38 14 90
113 90 173 0 27 11 60 31 96 86 154 89 229 14 421 -39 100 -42 126 -18 172 18
36 35 52 78 72 36 17 55 18 89 5z"/>
<path d="M20807 20776 c-57 -21 -103 -61 -128 -113 -22 -43 -24 -62 -24 -181
l0 -133 -46 -34 c-58 -42 -84 -95 -108 -218 -10 -52 -25 -107 -35 -122 -26
-40 -95 -79 -222 -125 -113 -42 -164 -75 -191 -124 -10 -18 -26 -11 -218 103
-257 152 -278 162 -376 168 -149 11 -294 -36 -465 -149 -132 -87 -298 -248
-406 -394 -387 -523 -521 -1127 -317 -1433 43 -65 64 -82 374 -295 94 -65 177
-126 185 -136 8 -10 26 -20 40 -23 14 -3 50 -13 80 -22 40 -12 78 -15 140 -11
585 35 1261 990 1215 1717 l-7 107 34 26 c41 31 91 52 181 78 95 26 157 59
200 107 49 54 66 91 122 261 67 203 101 266 192 347 45 40 85 87 101 117 25
47 27 60 26 161 -1 141 -23 204 -94 268 -72 65 -165 84 -253 53z m195 -124
c62 -67 88 -214 53 -299 -8 -20 -55 -75 -103 -122 -104 -102 -126 -143 -206
-380 -31 -93 -67 -178 -82 -198 -37 -49 -102 -88 -181 -107 -105 -27 -158 -54
-252 -128 -77 -61 -166 -108 -207 -108 -8 0 -45 8 -82 18 -77 21 -103 20 -223
-8 -48 -11 -98 -20 -111 -20 -27 0 -44 26 -59 89 -6 28 -4 37 16 56 30 30 72
36 287 38 171 2 177 3 202 26 14 13 33 45 42 70 51 140 55 143 207 197 205 74
262 134 286 301 14 93 31 136 68 161 14 9 39 29 56 44 l32 26 0 150 c0 136 2
153 21 179 33 46 80 65 144 59 48 -4 60 -10 92 -44z m-1487 -763 c35 -10 275
-144 275 -154 0 -2 -24 -9 -53 -15 -60 -12 -79 -5 -187 76 -30 22 -75 55 -99
72 l-45 32 35 0 c18 0 52 -5 74 -11z m-143 -90 c136 -95 187 -133 188 -139 0
-3 -24 -18 -53 -34 -132 -74 -308 -231 -426 -381 -35 -44 -65 -82 -66 -83 -5
-6 -258 163 -274 181 -16 20 -62 22 -79 5 -38 -38 7 -89 168 -194 58 -38 109
-72 114 -75 11 -9 -36 -89 -52 -89 -18 0 -50 18 -93 51 -55 43 -109 35 -109
-16 0 -25 49 -74 108 -105 23 -13 42 -27 42 -30 0 -4 -21 -51 -46 -106 -97
-207 -156 -429 -170 -636 l-7 -107 -86 58 c-47 32 -103 73 -125 90 -39 31 -83
40 -103 20 -17 -17 -37 139 -29 233 10 121 25 181 43 174 42 -16 61 -16 77 0
27 26 17 66 -22 86 -19 9 -36 19 -39 21 -10 11 35 137 49 137 27 0 179 -81
221 -118 52 -45 76 -51 101 -26 27 26 18 55 -30 100 -41 39 -214 134 -243 134
-21 0 -11 31 40 128 105 200 286 448 319 439 10 -2 72 -41 138 -86 120 -82
158 -95 182 -66 26 32 3 63 -103 134 -166 114 -151 100 -130 123 29 33 173
143 233 178 51 30 135 68 153 69 4 1 53 -31 109 -70z m611 -180 c30 -14 33
-21 14 -37 -11 -10 -377 -23 -377 -14 0 6 99 45 150 58 62 15 171 12 213 -7z
m-494 -332 c39 -83 93 -92 286 -46 l80 19 86 -22 86 -22 74 25 c41 14 83 29
93 34 18 8 19 3 13 -136 -9 -215 -55 -388 -162 -616 -292 -617 -845 -1030
-1140 -852 -246 148 -245 613 1 1108 123 247 274 450 455 609 l94 83 6 -68 c4
-37 16 -90 28 -116z m-893 -1348 c33 -15 43 -26 48 -51 3 -17 5 -33 3 -34 -2
-2 -55 32 -119 76 -106 73 -188 147 -188 169 0 6 48 -24 108 -66 59 -42 126
-84 148 -94z"/>
<path d="M19218 19719 c-11 -6 -18 -22 -18 -39 0 -37 67 -93 106 -88 58 7 57
66 -3 111 -39 29 -58 32 -85 16z"/>
<path d="M19437 19184 c-11 -11 -8 -52 3 -59 6 -3 19 -3 31 0 28 9 23 59 -6
63 -12 2 -24 0 -28 -4z"/>
<path d="M20006 19164 c-16 -42 6 -80 38 -68 11 4 16 18 16 45 0 34 -3 39 -24
39 -13 0 -27 -7 -30 -16z"/>
<path d="M19142 19003 c2 -22 8 -28 28 -28 20 0 25 5 25 25 0 20 -6 26 -28 28
-26 3 -28 1 -25 -25z"/>
<path d="M19465 18713 c14 -35 25 -66 25 -69 0 -4 -18 -4 -40 -1 l-40 5 25
-20 c31 -24 31 -49 0 -117 -27 -57 -28 -57 38 -4 16 13 33 23 38 23 5 0 26
-16 48 -35 l38 -35 -11 41 c-10 37 -9 43 11 59 20 15 20 19 6 33 -22 22 -11
55 36 108 l39 45 -55 -28 c-31 -15 -65 -28 -77 -28 -11 0 -40 19 -63 42 l-43
43 25 -62z"/>
<path d="M19072 18654 c-17 -11 -22 -25 -22 -58 0 -49 13 -66 51 -66 43 0 66
49 48 98 -17 44 -40 52 -77 26z"/>
<path d="M19914 18625 c-11 -46 35 -75 56 -35 8 14 8 26 0 40 -15 29 -48 26
-56 -5z"/>
<path d="M19552 18178 c2 -15 10 -23 23 -23 13 0 21 8 23 23 3 18 -1 22 -23
22 -22 0 -26 -4 -23 -22z"/>
<path d="M18997 18094 c-14 -14 -7 -72 9 -78 25 -10 45 14 42 48 -2 22 -9 32
-23 34 -12 2 -24 0 -28 -4z"/>
<path d="M19198 17915 c-17 -38 0 -79 34 -83 22 -3 29 2 33 21 4 14 5 38 3 53
-2 23 -9 30 -30 32 -22 3 -30 -2 -40 -23z"/>
<path d="M17740 19252 c-127 -132 -120 -265 17 -355 67 -44 199 -96 263 -104
100 -12 188 66 191 169 3 79 -33 114 -141 137 -75 16 -93 30 -140 111 -44 76
-62 90 -111 90 -26 0 -42 -10 -79 -48z m125 -107 c43 -78 83 -107 177 -131 81
-20 92 -30 77 -72 -11 -33 -47 -62 -77 -62 -25 0 -153 44 -194 67 -46 25 -98
74 -109 102 -7 18 -4 34 12 65 17 34 66 96 75 96 1 0 19 -29 39 -65z"/>
<path d="M26109 18970 c-195 -24 -482 -146 -744 -318 -417 -273 -794 -680
-1240 -1337 -150 -221 -197 -287 -456 -635 -221 -298 -388 -537 -483 -692
l-47 -77 -47 16 c-226 74 -605 122 -967 123 l-140 0 -90 45 c-198 100 -376
139 -625 139 -196 0 -280 -16 -416 -78 -68 -32 -71 -32 -83 -15 -12 21 -75 27
-86 9 -11 -18 -22 -10 -29 20 -8 42 -46 59 -81 36 -14 -9 -34 -14 -47 -11 -37
9 -61 -17 -68 -71 -5 -39 -8 -45 -15 -29 -19 44 -60 97 -86 111 -67 34 -149 9
-149 -45 0 -12 -10 -35 -21 -51 -18 -23 -21 -38 -17 -79 3 -28 2 -51 -2 -51
-4 0 -11 28 -14 62 -9 76 -20 98 -50 98 -12 0 -33 11 -46 25 -28 30 -58 32
-110 5 -41 -21 -57 -52 -47 -92 4 -14 -10 -4 -39 30 -48 55 -73 63 -111 37
-19 -14 -26 -12 -78 15 -119 62 -157 36 -152 -103 3 -78 2 -87 -14 -87 -39 0
-31 -71 15 -141 19 -29 37 -41 73 -52 l48 -14 -45 -7 c-35 -6 -56 -3 -93 13
-144 62 -361 90 -554 72 -517 -47 -886 -250 -1050 -576 l-35 -69 -14 26 c-30
57 -79 36 -72 -30 6 -49 -28 -60 -88 -32 -24 12 -68 24 -99 27 l-55 6 -6 -31
c-6 -27 -8 -29 -25 -19 -15 9 -24 9 -39 -1 -11 -6 -37 -12 -59 -12 -91 0 -116
-35 -78 -112 l23 -46 -301 -150 -301 -149 -134 -7 c-378 -20 -661 -103 -857
-250 -132 -100 -190 -203 -205 -366 -14 -155 -17 -170 -34 -170 -28 0 -109
-48 -145 -87 -62 -64 -82 -116 -83 -208 0 -96 24 -158 85 -221 l40 -41 -25
-89 c-33 -116 -56 -278 -56 -392 0 -269 94 -562 240 -752 18 -23 30 -53 34
-85 16 -137 86 -285 225 -475 281 -386 929 -976 1299 -1184 351 -197 779 -322
1322 -388 166 -20 232 -22 640 -22 503 -1 631 7 1125 69 680 85 1138 191 1665
385 1353 497 2313 1320 2633 2255 96 282 131 492 131 790 0 212 -14 333 -58
524 -14 60 -14 70 5 145 29 115 37 378 16 501 -41 235 -163 475 -334 655 -50
53 -63 73 -55 83 6 7 92 175 191 372 243 488 389 724 643 1041 386 483 839
896 1398 1274 132 90 247 206 291 295 32 67 34 75 34 180 0 106 -1 112 -34
173 -107 197 -384 323 -642 292z m203 -292 c57 -29 46 -101 -24 -170 -91 -88
-466 -258 -649 -293 -139 -27 -167 0 -115 110 42 88 137 163 309 245 221 106
404 147 479 108z m-5959 -2535 c54 -57 96 -199 97 -323 0 -120 45 -235 91
-235 23 0 24 3 32 104 7 95 6 110 -17 180 -35 109 -46 163 -46 220 0 55 4 60
32 35 14 -14 20 -14 33 -4 8 7 15 19 15 26 0 8 4 14 8 14 5 0 13 -26 18 -57 7
-48 13 -59 30 -61 16 -2 28 7 44 33 43 70 64 20 56 -133 l-6 -103 48 3 47 3
-1 -35 c-1 -48 -16 -73 -102 -171 -54 -62 -205 -272 -227 -316 -1 -2 -25 6
-53 17 -114 44 -205 21 -340 -84 -40 -31 -79 -56 -87 -56 -8 0 -31 11 -51 25
-42 28 -65 27 -138 -6 -50 -23 -80 -25 -73 -4 3 7 -2 24 -13 37 -16 21 -26 23
-90 21 -83 -3 -107 7 -168 69 l-42 44 35 17 c20 9 38 24 41 32 8 19 47 19 109
0 57 -17 85 -7 85 30 0 23 2 24 53 18 28 -3 119 -18 200 -34 82 -16 160 -29
174 -29 54 0 102 45 103 98 0 39 -36 65 -114 82 -49 11 -337 60 -461 78 l-60
10 95 2 c109 2 139 9 154 33 26 40 -20 63 -183 92 -46 8 -90 20 -98 26 -18 15
-46 69 -40 76 3 2 40 -7 84 -21 68 -21 80 -23 93 -10 22 21 4 43 -71 86 -60
34 -64 40 -71 80 -16 103 -6 109 86 53 68 -41 75 -42 109 -15 l26 21 53 -71
c29 -38 60 -70 69 -70 29 0 41 27 37 85 -3 52 -1 57 25 73 26 16 28 16 52 -11
14 -15 34 -27 44 -27 15 0 21 -16 35 -101 19 -113 26 -132 62 -155 23 -16 26
-15 44 1 23 21 25 55 8 156 -10 66 -10 71 10 92 13 14 22 36 22 55 0 30 3 32
33 32 23 0 41 -8 60 -27z m1140 -9 c96 -16 269 -69 338 -104 132 -67 286 -191
377 -302 29 -37 44 -35 87 11 19 21 57 50 83 64 46 25 179 68 253 81 l36 6
-24 -81 c-57 -200 -86 -403 -81 -584 l3 -120 89 -5 c87 -5 88 -5 68 -24 -40
-35 -72 -167 -87 -353 -3 -45 -17 -122 -31 -170 -13 -48 -32 -115 -41 -148
-25 -92 -19 -103 111 -199 111 -82 171 -137 311 -285 87 -91 113 -105 175 -97
l48 6 99 -99 c57 -57 110 -102 126 -106 34 -9 57 9 57 44 0 40 15 55 59 57 23
1 52 11 67 23 15 12 41 21 59 21 64 0 69 47 11 108 -34 36 -124 93 -313 196
-68 37 -125 72 -129 77 -8 14 79 1 124 -17 18 -7 68 -38 110 -67 100 -71 133
-87 176 -87 30 0 40 6 58 34 13 19 31 37 41 40 17 4 23 39 11 71 -4 9 -32 29
-63 45 -32 15 -63 36 -70 44 -13 15 2 16 170 10 201 -6 242 0 247 35 4 26 -11
47 -52 72 -34 21 -32 22 59 40 108 21 139 50 114 110 -18 45 -74 69 -157 69
-38 0 -89 -7 -112 -15 -63 -22 -66 -19 -26 26 27 29 36 48 34 67 -3 25 -6 27
-50 25 -27 0 -72 -13 -104 -27 -31 -15 -59 -25 -61 -22 -2 2 4 17 14 34 14 25
15 36 7 49 -9 15 -26 18 -89 18 -78 0 -78 0 -88 30 -13 39 -36 65 -59 65 -10
0 -36 -16 -58 -36 -35 -31 -40 -34 -40 -16 0 27 -25 45 -54 38 -13 -3 -84 -53
-157 -111 -209 -165 -289 -215 -272 -167 16 42 70 107 155 184 168 152 178
163 178 193 0 33 -25 65 -51 65 -30 0 -31 17 -5 114 14 51 26 112 26 135 0 38
-2 41 -29 41 -15 0 -46 -12 -67 -27 -33 -23 -48 -26 -97 -24 -54 2 -60 0 -92
-32 -19 -19 -35 -42 -35 -50 0 -28 -23 -35 -53 -17 l-28 17 30 6 c22 5 58 41
156 158 70 83 160 196 201 251 l73 99 37 -51 c40 -56 45 -57 135 -34 68 17
138 10 216 -23 254 -106 602 -548 722 -918 81 -251 82 -522 2 -757 -232 -684
-1084 -1281 -2536 -1774 -1051 -358 -2120 -544 -3270 -569 l-260 -6 70 35 c83
41 104 58 139 110 18 26 26 52 26 80 0 40 -5 46 -134 169 -74 70 -140 127
-147 127 -8 0 -105 -39 -216 -87 -161 -70 -203 -92 -203 -107 0 -25 96 -137
173 -204 34 -29 89 -67 122 -84 l60 -30 -190 6 c-705 23 -1486 166 -1750 321
-62 36 -96 108 -102 215 -5 89 10 122 83 173 51 36 52 39 18 152 -12 42 -17
94 -17 175 0 189 52 317 189 460 41 43 99 95 129 116 l55 37 0 62 c0 185 69
394 190 578 97 146 313 347 474 442 l46 27 -2 72 c-1 85 17 134 83 216 41 52
43 53 49 30 7 -31 39 -39 152 -39 49 1 92 -2 95 -5 4 -3 -35 -6 -86 -6 -85 0
-94 -2 -115 -25 -13 -14 -33 -25 -45 -25 -11 0 -31 -10 -42 -21 -17 -17 -20
-29 -16 -61 7 -51 45 -92 109 -115 l48 -17 -42 -21 c-39 -18 -43 -23 -45 -60
-1 -22 -5 -52 -8 -66 -8 -33 16 -59 54 -59 28 0 28 -1 24 -43 -4 -30 -1 -46
10 -55 18 -16 101 -19 193 -9 l70 8 15 -33 c12 -28 20 -33 52 -36 55 -5 117
19 257 99 171 97 239 131 256 127 28 -6 -16 -49 -80 -78 -83 -38 -116 -80
-130 -165 -12 -71 11 -122 79 -175 76 -59 86 -85 57 -145 -27 -56 -29 -130 -5
-165 38 -56 84 -75 187 -82 l79 -5 45 -52 c57 -67 124 -101 194 -101 88 0 139
50 199 195 50 123 50 123 209 134 218 15 255 40 271 184 5 45 12 92 14 104 10
47 59 85 173 139 l113 53 -3 37 c-3 34 -11 42 -98 105 -124 89 -261 165 -363
200 -45 16 -81 34 -79 40 2 7 17 32 34 57 41 60 48 122 20 186 -25 54 -108
145 -174 190 -30 21 -65 59 -96 107 -53 81 -114 144 -164 172 -73 39 -185 11
-275 -68 -39 -33 -43 -41 -43 -82 0 -25 7 -72 15 -105 16 -60 16 -60 -12 -106
-55 -95 -25 -203 85 -303 59 -54 171 -124 215 -134 34 -9 35 -23 1 -31 -16 -4
-58 3 -112 20 -48 14 -125 29 -172 33 l-85 6 -46 46 c-54 56 -89 124 -89 172
0 41 27 103 83 188 54 84 55 122 5 163 l-37 29 15 47 c29 97 12 152 -46 152
-26 0 -30 4 -35 35 -3 19 -7 51 -10 70 -7 43 -50 87 -136 137 -73 44 -92 40
-110 -23 -7 -22 -21 -45 -31 -50 -24 -13 -24 -71 1 -126 l19 -41 -24 -6 c-19
-5 -24 -13 -24 -36 0 -39 43 -173 90 -282 50 -114 56 -141 34 -162 -36 -37
-57 -5 -146 229 -87 229 -89 247 -35 359 89 187 217 316 411 413 311 156 733
205 1020 119 27 -8 54 -24 62 -34 8 -11 36 -25 65 -32 28 -7 71 -28 95 -46 54
-42 91 -44 104 -8 8 21 15 25 38 20 15 -3 108 -19 206 -36 167 -29 236 -49
236 -69 0 -4 -9 -16 -20 -26 -20 -18 -25 -18 -188 13 -273 51 -305 51 -322 6
-8 -20 -13 -22 -42 -13 -62 17 -115 11 -141 -16 -13 -14 -39 -33 -58 -43 -18
-9 -35 -25 -37 -35 -5 -25 40 -80 105 -130 55 -41 59 -42 132 -42 74 0 75 0
82 -29 15 -54 59 -60 153 -21 61 25 78 23 106 -9 7 -10 28 -16 50 -16 31 0 52
11 112 56 138 105 207 125 300 85 l45 -19 -48 -98 c-225 -463 -249 -942 -57
-1150 l39 -43 -28 -14 c-58 -29 -174 -46 -418 -62 -55 -4 -118 -13 -140 -21
-22 -7 -45 -14 -52 -14 -36 0 -128 -47 -172 -86 -59 -53 -86 -114 -78 -176 7
-54 33 -87 88 -116 38 -20 55 -23 119 -19 89 5 151 30 210 83 54 49 80 101 80
161 0 50 -27 109 -55 119 -35 14 -9 22 88 29 282 18 376 49 496 159 77 70 165
119 251 137 73 16 202 6 276 -20 201 -71 459 -68 619 9 33 16 72 36 86 46 24
16 27 15 70 -16 45 -31 47 -31 104 -21 32 6 67 11 78 11 18 0 18 -1 -1 -27
-26 -38 -32 -69 -21 -102 33 -95 271 -47 324 65 20 42 12 88 -17 109 -21 14
-21 14 8 25 70 26 81 33 100 63 15 26 19 51 19 132 0 89 -3 106 -28 157 -25
51 -76 107 -121 133 -17 10 -17 16 12 105 51 160 66 252 67 400 0 189 -35 308
-120 407 -20 24 -141 116 -268 205 -128 89 -242 173 -253 185 -29 32 -150 63
-244 63 -166 0 -362 -86 -545 -239 l-50 -41 -7 32 c-7 37 -31 58 -65 58 -22 0
-23 4 -23 65 l0 64 83 40 c178 86 363 105 610 65z m124 -164 c94 -41 165 -135
198 -265 22 -85 20 -270 -4 -394 -55 -280 -211 -607 -408 -851 -34 -42 -109
-122 -168 -179 -87 -83 -111 -102 -129 -96 -64 18 -157 35 -201 35 -124 0
-271 -54 -357 -130 -26 -22 -51 -40 -56 -40 -19 0 -75 74 -103 135 -102 225
-47 593 143 968 181 356 442 639 711 772 151 74 273 89 374 45z m1317 -46
c126 -31 262 -125 286 -200 10 -30 9 -40 -9 -74 -30 -57 -229 -310 -357 -452
l-33 -37 -106 -7 -105 -7 0 104 c0 208 54 500 121 657 l19 44 63 -7 c34 -3 88
-13 121 -21z m-634 -54 c-1 -3 -12 -13 -26 -24 -26 -18 -26 -18 -51 7 l-25 25
51 -2 c28 0 51 -3 51 -6z m-254 -193 c106 -76 139 -106 169 -157 10 -17 24
-26 -132 84 -54 38 -112 75 -130 82 -36 15 -38 18 -47 58 -9 38 -3 35 140 -67z
m-38 -144 c37 -26 93 -67 125 -91 50 -38 64 -44 92 -39 43 7 46 -1 53 -131 4
-87 -10 -236 -24 -264 -2 -3 -20 -1 -39 5 -31 9 -38 8 -57 -10 -30 -30 -18
-69 27 -87 40 -17 41 -21 18 -93 -14 -46 -20 -53 -43 -53 -39 0 -164 64 -213
109 -55 51 -93 54 -110 8 -15 -41 44 -103 147 -154 31 -15 55 -31 54 -35 -2
-4 -52 -64 -113 -134 -60 -70 -113 -132 -117 -137 -7 -12 -77 26 -156 85 -51
38 -52 39 -38 66 8 15 21 36 29 47 14 19 16 19 58 -9 24 -16 54 -37 65 -48 25
-23 72 -21 87 3 19 31 -1 66 -63 107 -33 22 -65 42 -72 44 -8 3 8 49 49 139
104 228 161 454 164 652 1 37 4 67 6 67 2 0 34 -21 71 -47z m-3768 -312 c33
-32 38 -44 44 -99 8 -71 35 -107 73 -97 27 6 29 -13 9 -89 -16 -63 -10 -92 25
-117 16 -11 29 -28 29 -37 0 -9 -18 -44 -40 -77 -50 -75 -80 -153 -80 -208 0
-56 39 -136 95 -196 36 -39 43 -51 32 -58 -8 -4 -18 -21 -23 -37 -7 -20 -20
-32 -45 -40 -20 -7 -81 -37 -135 -66 -238 -128 -307 -161 -333 -158 -24 3 -26
6 -23 46 4 48 4 48 -79 27 -65 -17 -193 -24 -206 -12 -4 5 7 21 25 35 19 16
32 36 32 49 0 20 -6 22 -67 26 -50 2 -62 5 -45 11 28 10 29 40 2 59 -21 14
-21 14 2 21 41 11 158 6 267 -10 96 -14 111 -14 161 0 30 9 75 19 100 24 60
10 62 38 5 67 -36 18 -60 20 -260 20 -205 1 -224 2 -277 23 -59 24 -88 52 -88
84 0 13 8 18 30 18 20 0 38 9 52 25 20 23 28 25 107 25 137 0 187 24 159 74
-16 28 -56 37 -170 37 -104 0 -109 2 -118 23 -4 13 -22 29 -39 36 -17 7 -31
13 -31 15 0 1 5 16 11 34 10 30 13 31 66 31 63 0 93 13 93 40 0 15 -21 30 -85
61 -82 40 -84 42 -70 62 23 32 19 48 -26 97 -75 84 -74 86 23 93 l58 4 56 -64
c91 -102 134 -78 71 38 -20 37 -37 70 -37 74 0 8 33 -1 75 -21 23 -11 35 -27
49 -67 31 -90 78 -186 94 -192 51 -19 68 27 53 141 -6 42 -10 79 -8 80 2 2 16
-36 31 -84 16 -48 55 -156 87 -241 80 -210 113 -250 178 -216 75 38 76 82 7
248 -36 86 -86 226 -86 242 0 2 10 5 21 7 41 6 45 31 14 99 -22 50 -25 66 -16
78 6 9 19 32 27 52 l16 37 36 -21 c19 -11 52 -37 72 -56z m4883 -153 c-32
-121 -27 -151 26 -163 49 -11 42 -23 -64 -110 -142 -117 -245 -246 -245 -309
0 -24 28 -56 49 -56 42 1 144 68 332 218 30 24 65 52 78 62 l25 19 18 -29 c23
-39 45 -38 95 5 l41 35 10 -28 c19 -54 39 -65 105 -57 55 6 59 5 52 -12 -16
-36 -18 -85 -4 -94 23 -15 48 -10 119 21 84 37 90 37 56 3 -28 -28 -42 -64
-32 -88 7 -20 75 -20 140 0 69 21 134 19 174 -5 18 -11 30 -25 27 -30 -7 -12
-93 -37 -158 -46 -89 -12 -111 -56 -46 -92 78 -43 76 -44 -137 -37 -179 6
-203 5 -217 -10 -21 -21 -21 -23 3 -62 16 -26 94 -82 134 -96 15 -5 -44 -77
-64 -77 -9 0 -57 28 -106 62 -125 86 -180 110 -262 111 -116 1 -147 -39 -69
-91 23 -16 98 -59 167 -97 219 -120 325 -195 277 -195 -6 0 -33 -11 -58 -24
-28 -15 -55 -23 -67 -19 -33 8 -70 -21 -78 -62 l-6 -35 -47 39 c-25 21 -64 61
-86 89 -52 66 -95 87 -140 71 -30 -11 -37 -10 -72 13 -22 14 -75 66 -119 114
-88 99 -176 178 -274 247 -36 25 -74 55 -85 67 -19 20 -18 22 5 98 44 144 60
217 66 297 13 176 55 335 88 335 9 0 31 -8 50 -17 47 -22 74 -9 104 50 26 52
44 61 104 52 36 -5 48 -2 77 19 19 14 36 24 38 22 2 -2 -9 -51 -24 -108z
m-4274 -63 c28 -14 114 -103 131 -135 8 -16 4 -16 -58 1 -120 34 -228 22 -280
-31 l-30 -29 -6 31 c-12 63 -7 85 27 110 85 65 159 83 216 53z m-1042 -37 c-3
-8 -6 -5 -6 6 -1 11 2 17 5 13 3 -3 4 -12 1 -19z m1155 -151 c177 -67 318
-207 318 -314 0 -79 -58 -110 -188 -101 -125 10 -252 71 -354 170 -115 112
-130 221 -34 264 47 22 175 12 258 -19z m-1502 -22 c23 -13 23 -14 5 -15 -34
0 -60 -26 -75 -72 -8 -24 -29 -61 -48 -83 l-33 -41 -92 23 c-51 12 -102 23
-114 23 -13 0 -23 3 -23 8 0 9 320 171 340 171 8 0 26 -6 40 -14z m4760 -94
c76 -29 115 -64 149 -132 25 -51 31 -74 31 -128 0 -95 -20 -130 -90 -153 -45
-16 -215 -53 -366 -81 -23 -4 -40 0 -67 19 -21 14 -37 29 -37 35 0 6 24 35 52
65 39 41 76 67 143 100 50 24 98 44 106 44 25 0 39 21 28 41 -9 17 -12 17 -62
2 -114 -33 -247 -123 -300 -203 -11 -15 -20 -21 -26 -15 -15 15 338 424 366
424 13 1 46 -8 73 -18z m-3524 -149 c54 -58 62 -78 44 -113 -14 -26 7 -26 35
1 l22 20 87 -41 c48 -22 102 -43 121 -46 21 -3 35 -12 38 -24 6 -23 -25 -43
-53 -34 -14 4 -19 0 -22 -17 -4 -33 -43 -34 -111 -4 -122 54 -239 155 -278
239 -24 54 -24 84 2 127 l21 35 20 -43 c11 -23 44 -68 74 -100z m-1704 -7 c57
-9 137 -24 178 -33 69 -17 75 -20 73 -43 -2 -13 -6 -53 -9 -89 -7 -72 -28
-103 -49 -73 -18 24 -47 9 -43 -21 2 -20 -10 -34 -66 -77 -38 -29 -102 -83
-142 -121 -40 -39 -78 -67 -84 -63 -16 10 -12 88 10 157 11 34 20 63 20 64 0
0 -25 -24 -55 -53 -65 -63 -101 -70 -140 -27 -25 27 -25 27 -25 4 0 -12 -15
-37 -34 -56 -32 -32 -38 -34 -100 -34 -42 0 -93 9 -143 25 -42 13 -78 23 -80
22 -1 -2 25 -23 58 -47 34 -24 83 -68 110 -98 60 -66 61 -80 15 -217 l-34
-100 37 45 c68 85 144 160 161 160 10 0 25 -15 33 -32 15 -32 15 -35 -13 -84
-16 -28 -41 -80 -55 -115 -15 -35 -34 -68 -43 -75 -9 -7 -13 -18 -9 -29 8 -19
-8 -91 -22 -99 -14 -9 -245 51 -343 89 -86 33 -242 111 -279 138 -9 7 -26 31
-37 53 -32 62 -70 102 -127 135 -35 20 -57 40 -69 65 -84 177 18 368 264 493
154 79 335 129 540 151 115 12 375 4 502 -15z m4666 -160 c50 -33 69 -52 62
-59 -17 -17 -11 -50 10 -64 11 -7 20 -16 20 -20 0 -9 -91 -62 -107 -62 -5 0
-40 23 -78 50 -74 53 -94 59 -119 34 -25 -25 -19 -52 20 -88 l36 -33 -60 -6
c-33 -4 -90 -4 -126 0 l-66 6 98 101 c54 56 119 129 146 164 l48 63 22 -19
c11 -11 54 -41 94 -67z m-2453 -35 c-3 -5 -26 -10 -51 -10 -28 0 -43 4 -39 10
3 6 26 10 51 10 28 0 43 -4 39 -10z m40 -75 c89 -24 236 -97 361 -180 146 -97
148 -100 93 -124 -24 -11 -69 -30 -99 -44 -62 -27 -117 -76 -135 -122 -7 -16
-16 -61 -19 -100 -15 -152 -29 -162 -233 -176 -180 -12 -185 -15 -243 -149
-57 -133 -99 -180 -160 -180 -55 0 -113 33 -163 94 -41 50 -80 66 -160 66 -87
0 -147 42 -147 101 0 15 9 46 20 70 40 89 20 143 -76 210 -47 32 -72 88 -58
132 20 67 38 90 90 113 100 44 144 102 144 192 0 26 5 35 28 43 38 15 150 2
242 -27 41 -13 89 -24 105 -24 33 0 118 37 167 72 69 49 143 59 243 33z
m-1295 -24 c0 -15 -45 -21 -97 -14 -45 7 -46 8 -18 14 45 10 115 10 115 0z
m4331 -71 c28 -15 23 -42 -13 -77 -65 -61 -150 -87 -193 -59 -31 21 -31 27 2
67 49 58 156 94 204 69z m2285 -481 c20 -147 15 -478 -10 -629 -67 -393 -224
-750 -485 -1100 -109 -146 -266 -311 -289 -303 -11 5 -14 2 -9 -10 4 -11 -1
-22 -13 -29 -11 -7 -20 -18 -20 -24 0 -6 -8 -18 -17 -27 -15 -12 -20 -13 -30
-2 -10 10 -9 14 3 19 9 3 19 4 23 2 4 -3 7 5 7 16 -1 14 7 24 21 27 26 7 19
26 -12 34 -12 4 -9 5 10 4 26 -2 30 1 28 21 -2 14 3 22 12 22 8 0 15 7 15 15
0 9 8 14 23 12 17 -1 21 3 19 18 -2 16 -1 17 7 5 11 -17 4 -27 -31 -44 -12 -6
-24 -22 -26 -35 -3 -21 0 -19 37 15 30 29 39 44 35 60 -6 24 27 54 59 54 12 0
17 5 14 14 -3 8 2 17 11 21 15 6 15 8 -3 22 -20 15 -20 15 2 9 16 -5 23 -2 28
14 3 11 10 20 14 20 10 0 24 57 22 85 -2 17 0 17 8 5 9 -12 11 -11 11 8 0 12
4 22 9 22 4 0 14 21 21 48 7 26 17 52 22 59 6 7 8 25 5 40 -2 15 -2 22 0 16 3
-7 8 -13 12 -13 12 0 44 99 37 116 -3 8 -2 12 4 9 12 -7 18 7 24 55 2 19 8 47
14 61 6 15 8 29 6 32 -3 3 0 15 6 28 18 32 40 130 51 224 5 44 14 98 19 120 6
28 5 42 -3 47 -9 6 -9 10 0 16 7 4 12 50 15 124 1 64 -1 111 -5 105 -4 -7 -7
9 -5 36 4 53 2 57 -13 25 -9 -22 -9 -22 -3 2 3 14 7 44 8 68 2 23 10 50 18 60
59 66 164 276 224 445 44 125 42 127 70 -64z m-4659 111 c29 -13 48 -30 59
-54 16 -33 16 -38 0 -80 -56 -146 -304 -213 -380 -104 -53 75 26 194 159 240
65 23 110 22 162 -2z m-4218 -31 c158 -71 179 -280 38 -376 -85 -57 -185 -53
-261 9 -117 96 -106 271 23 352 65 41 132 46 200 15z m516 -367 c66 -22 164
-49 218 -60 55 -11 101 -22 103 -24 2 -3 -1 -20 -6 -39 -6 -18 -10 -47 -10
-64 0 -23 -8 -35 -34 -53 -18 -12 -65 -55 -105 -94 -39 -39 -73 -70 -75 -67
-3 4 5 77 18 157 17 100 18 123 6 137 -16 19 -64 19 -79 1 -7 -8 -21 -83 -32
-167 -11 -84 -21 -154 -22 -156 -6 -5 -200 87 -266 126 -37 22 -91 61 -120 87
-46 42 -51 50 -45 76 3 18 31 55 65 89 47 47 62 70 76 118 l18 59 85 -43 c47
-23 139 -61 205 -83z m8022 -204 c-3 -8 -6 -5 -6 6 -1 11 2 17 5 13 3 -3 4
-12 1 -19z m-8403 -165 c78 -51 240 -130 326 -159 30 -10 56 -19 58 -20 2 -1
-7 -33 -21 -71 -49 -137 -57 -288 -22 -439 l14 -61 -48 -50 c-58 -60 -75 -112
-69 -217 2 -42 1 -76 -1 -76 -13 0 -120 92 -178 153 -135 142 -222 310 -275
527 -21 87 -18 405 5 502 l18 77 62 -60 c33 -33 93 -81 131 -106z m8376 117
c0 -11 -7 -20 -15 -20 -18 0 -19 12 -3 28 16 16 18 15 18 -8z m47 -22 c-3 -8
-6 -5 -6 6 -1 11 2 17 5 13 3 -3 4 -12 1 -19z m0 -151 c-2 -23 -3 -1 -3 48 0
50 1 68 3 42 2 -26 2 -67 0 -90z m-109 85 c6 -18 -15 -14 -22 4 -4 10 -1 14 6
12 6 -2 14 -10 16 -16z m-58 -75 c0 -20 0 -20 -14 -1 -14 18 -15 18 -21 2 -4
-10 -12 -18 -18 -18 -6 0 0 11 13 25 26 27 40 25 40 -8z m-86 -73 c15 -40 -7
-58 -44 -34 -12 7 -12 12 4 29 23 25 32 26 40 5z m-76 -115 c2 -9 1 -10 -5 -3
-4 6 -16 13 -25 17 -10 3 -18 12 -18 18 0 15 43 -13 48 -32z m-84 0 c-15 -16
-16 -24 -6 -39 17 -27 15 -30 -12 -17 -20 10 -22 14 -12 31 10 19 36 45 45 46
2 0 -4 -9 -15 -21z m-79 -68 c-3 -5 5 -12 17 -14 14 -3 11 -4 -10 -4 -23 1
-37 -5 -48 -21 -8 -12 -21 -22 -27 -22 -7 0 5 16 25 35 36 34 55 45 43 26z
m-75 -93 c0 -5 -5 -8 -11 -8 -5 0 -7 5 -3 11 4 8 -1 9 -17 5 -23 -7 -23 -7 -5
8 16 13 22 13 28 3 4 -6 8 -15 8 -19z m513 -56 c2 -24 -2 -38 -8 -36 -6 3 -9
22 -7 45 5 49 12 45 15 -9z m-26 -4 c-3 -7 -5 -2 -5 12 0 14 2 19 5 13 2 -7 2
-19 0 -25z m-600 -24 c-3 -3 -12 -4 -19 -1 -8 3 -5 6 6 6 11 1 17 -2 13 -5z
m-47 -59 c0 -2 -11 2 -24 8 -19 9 -21 15 -13 28 10 16 12 15 24 -8 7 -14 13
-27 13 -28z m670 16 c0 -6 -4 -13 -10 -16 -5 -3 -10 1 -10 9 0 9 5 16 10 16 6
0 10 -4 10 -9z m-760 -20 c0 -5 10 -12 23 -14 12 -2 3 -4 -20 -4 -35 0 -41 3
-32 14 13 15 29 17 29 4z m-81 -55 c-13 -14 -81 -56 -89 -56 -6 0 -10 5 -10
11 0 6 6 9 12 7 7 -3 24 6 38 19 14 13 31 23 39 23 8 0 12 -2 10 -4z m6 -35
c-3 -6 -14 -10 -23 -10 -15 1 -15 2 1 6 9 2 17 9 17 15 0 6 3 9 6 5 3 -3 3
-10 -1 -16z m-128 -38 c-4 -3 -26 -15 -49 -25 -43 -19 -40 -7 4 17 24 14 56
20 45 8z m53 -8 c0 -2 -10 -10 -22 -16 -21 -11 -22 -11 -9 4 13 16 31 23 31
12z m-155 -45 c-3 -5 -12 -10 -18 -10 -7 0 -6 4 3 10 19 12 23 12 15 0z m152
4 c-3 -3 -12 -4 -19 -1 -8 3 -5 6 6 6 11 1 17 -2 13 -5z m842 -59 l0 -20 -9
20 c-5 11 -9 29 -9 40 l0 20 9 -20 c5 -11 9 -29 9 -40z m-1022 29 c-3 -3 -12
-4 -19 -1 -8 3 -5 6 6 6 11 1 17 -2 13 -5z m-61 -29 c-36 -19 -45 -19 -20 0
10 8 26 14 34 15 8 0 2 -7 -14 -15z m1074 -40 c0 -5 -5 -3 -10 5 -5 8 -10 20
-10 25 0 6 5 3 10 -5 5 -8 10 -19 10 -25z m-1130 21 c0 -2 -7 -7 -16 -10 -8
-3 -12 -2 -9 4 6 10 25 14 25 6z m-31 -40 c10 -12 8 -13 -8 -9 -12 3 -21 9
-21 14 0 14 16 11 29 -5z m-28 -16 c5 0 9 -4 9 -10 0 -15 -20 -12 -38 7 -16
16 -16 16 1 10 10 -4 23 -7 28 -7z m-46 -20 c19 -8 19 -9 -2 -9 -12 -1 -25 4
-28 9 -7 12 2 12 30 0z m-45 -4 c0 -2 -9 -6 -20 -9 -11 -3 -18 -1 -14 4 5 9
34 13 34 5z m1207 -12 c-3 -3 -12 -4 -19 -1 -8 3 -5 6 6 6 11 1 17 -2 13 -5z
m-1254 -21 c-7 -2 -19 -2 -25 0 -7 3 -2 5 12 5 14 0 19 -2 13 -5z m1224 -80
c-2 -16 -4 -3 -4 27 0 30 2 43 4 28 2 -16 2 -40 0 -55z m43 58 c0 -6 -4 -13
-10 -16 -5 -3 -10 1 -10 9 0 9 5 16 10 16 6 0 10 -4 10 -9z m-1351 -15 c-2 -2
-18 -7 -34 -11 l-30 -6 30 14 c27 13 45 14 34 3z m81 4 c0 -5 -9 -10 -21 -10
-11 0 -17 5 -14 10 3 6 13 10 21 10 8 0 14 -4 14 -10z m-163 -46 c-3 -3 -12
-4 -19 -1 -8 3 -5 6 6 6 11 1 17 -2 13 -5z m-41 -24 c8 0 14 -4 14 -10 0 -5
-4 -10 -9 -10 -5 0 -18 -3 -28 -6 -15 -5 -15 -4 -3 5 25 17 5 22 -26 6 -16 -8
-38 -15 -49 -14 -12 0 -4 7 22 17 23 9 45 21 49 25 5 5 10 3 12 -2 2 -6 10
-11 18 -11z m-186 -60 c-8 -5 -19 -10 -25 -10 -5 0 -3 5 5 10 8 5 20 10 25 10
6 0 3 -5 -5 -10z m-50 -20 c0 -5 8 -10 17 -10 9 0 14 -2 11 -5 -9 -9 -58 6
-52 16 7 12 24 11 24 -1z m-3962 -114 c103 -101 114 -116 108 -139 -18 -73
-133 -147 -226 -147 -40 0 -67 8 -113 33 -86 45 -253 205 -234 224 10 10 322
143 336 143 8 0 66 -51 129 -114z m5592 68 c0 -2 -11 -3 -24 -2 -14 1 -23 5
-20 9 4 7 44 0 44 -7z m-1730 -3 c0 -10 -36 -21 -65 -20 -16 0 -13 4 10 14 35
16 55 19 55 6z m-83 -47 c-3 -3 -12 -4 -19 -1 -8 3 -5 6 6 6 11 1 17 -2 13 -5z
m80 0 c-3 -3 -12 -4 -19 -1 -8 3 -5 6 6 6 11 1 17 -2 13 -5z m1653 -17 c0 -2
-10 -12 -21 -23 -22 -19 -22 -19 -10 4 10 18 31 31 31 19z m-1895 -17 c-3 -5
-16 -10 -28 -9 -21 0 -21 1 -2 9 28 12 37 12 30 0z m-95 -30 c0 -5 -8 -10 -17
-10 -15 0 -16 2 -3 10 19 12 20 12 20 0z m70 -10 c0 -5 -9 -10 -19 -10 -11 0
-28 -3 -38 -6 -12 -5 -15 -4 -8 4 9 9 30 17 58 21 4 0 7 -3 7 -9z m-113 -6
c-3 -3 -12 -4 -19 -1 -8 3 -5 6 6 6 11 1 17 -2 13 -5z m1923 -29 c-7 -9 -15
-13 -17 -11 -7 7 7 26 19 26 6 0 6 -6 -2 -15z m-2043 -11 c-3 -3 -12 -4 -19
-1 -8 3 -5 6 6 6 11 1 17 -2 13 -5z m19 -31 c0 -14 -10 -18 -46 -19 -25 0 -37
1 -27 3 9 3 17 8 17 13 0 5 12 11 28 13 15 2 27 5 27 6 1 0 1 -7 1 -16z m-141
-13 c13 -6 15 -9 5 -9 -8 0 -22 4 -30 9 -18 12 -2 12 25 0z m-52 -7 c-7 -2
-19 -2 -25 0 -7 3 -2 5 12 5 14 0 19 -2 13 -5z m-69 -33 c-7 -7 -19 -7 -35 -1
-23 9 -22 10 11 10 23 1 31 -2 24 -9z m2226 6 c0 -3 -4 -8 -10 -11 -5 -3 -10
-1 -10 4 0 6 5 11 10 11 6 0 10 -2 10 -4z m-2307 -23 c-7 -2 -21 -2 -30 0 -10
3 -4 5 12 5 17 0 24 -2 18 -5z m2274 -25 c-3 -7 -5 -2 -5 12 0 14 2 19 5 13 2
-7 2 -19 0 -25z m-2337 12 c-8 -5 -22 -10 -30 -10 -13 0 -13 1 0 10 8 5 22 10
30 10 13 0 13 -1 0 -10z m100 -10 c-8 -5 -19 -10 -25 -10 -5 0 -3 5 5 10 8 5
20 10 25 10 6 0 3 -5 -5 -10z m-173 -6 c-3 -3 -12 -4 -19 -1 -8 3 -5 6 6 6 11
1 17 -2 13 -5z m2353 -29 c-7 -8 -17 -15 -23 -15 -5 0 -2 9 8 20 21 23 35 19
15 -5z m-2460 -5 c-8 -5 -24 -10 -35 -10 -17 0 -17 2 -5 10 8 5 24 10 35 10
17 0 17 -2 5 -10z m2508 -3 c9 -10 0 -24 -36 -58 -26 -24 -58 -53 -72 -64 -24
-18 -24 -18 1 7 18 17 24 29 16 32 -7 3 -3 4 8 3 14 -1 19 3 17 15 -2 13 2 16
15 11 16 -6 16 -5 4 10 -12 15 -11 20 4 37 21 23 29 25 43 7z m-2478 -17 c0
-11 -61 -24 -87 -17 -10 3 -1 5 19 6 20 0 40 6 43 11 8 13 25 13 25 0z m-223
-26 c-3 -3 -12 -4 -19 -1 -8 3 -5 6 6 6 11 1 17 -2 13 -5z m2580 -20 c2 -6 -5
-14 -17 -17 -11 -3 -20 -1 -20 4 0 5 8 9 18 10 15 0 14 2 -3 10 -19 8 -19 9
-1 6 11 -1 21 -7 23 -13z m-2692 -14 c-3 -5 -25 -10 -48 -9 -36 1 -38 2 -17 9
36 12 72 12 65 0z m-130 -20 c-27 -12 -43 -12 -25 0 8 5 22 9 30 9 10 0 8 -3
-5 -9z m-70 -20 c-16 -4 -48 -8 -70 -8 l-40 1 35 7 c19 4 51 7 70 8 l35 0 -30
-8z m192 4 c-3 -3 -12 -4 -19 -1 -8 3 -5 6 6 6 11 1 17 -2 13 -5z m-44 -11
c-7 -2 -21 -2 -30 0 -10 3 -4 5 12 5 17 0 24 -2 18 -5z m2727 3 c0 -3 -4 -8
-10 -11 -5 -3 -10 -1 -10 4 0 6 5 11 10 11 6 0 10 -2 10 -4z m-65 -44 c-17
-42 -16 -45 9 -18 14 16 26 24 26 18 0 -5 -36 -40 -80 -76 -44 -37 -80 -64
-80 -61 0 4 7 14 16 22 13 13 13 18 2 25 -9 7 -8 8 5 4 10 -3 25 1 34 10 14
13 13 14 -9 9 -18 -5 -27 -2 -31 9 -4 9 -2 16 3 16 6 0 10 -4 10 -10 0 -5 5
-10 11 -10 5 0 7 4 4 10 -4 6 6 8 24 6 25 -3 31 0 31 15 0 10 5 21 11 24 7 5
4 14 -8 27 -18 21 -18 21 5 9 16 -9 21 -18 17 -29z m-2962 11 c-7 -2 -19 -2
-25 0 -7 3 -2 5 12 5 14 0 19 -2 13 -5z m47 -13 c0 -5 -4 -10 -10 -10 -5 0
-10 5 -10 10 0 6 5 10 10 10 6 0 10 -4 10 -10z m-145 -20 c-27 -12 -43 -12
-25 0 8 5 22 9 30 9 10 0 8 -3 -5 -9z m-142 -7 c-7 -2 -19 -2 -25 0 -7 3 -2 5
12 5 14 0 19 -2 13 -5z m200 0 c-7 -2 -19 -2 -25 0 -7 3 -2 5 12 5 14 0 19 -2
13 -5z m-130 -10 c-7 -2 -21 -2 -30 0 -10 3 -4 5 12 5 17 0 24 -2 18 -5z
m-270 -30 c-7 -2 -19 -2 -25 0 -7 3 -2 5 12 5 14 0 19 -2 13 -5z m-113 -18
c-31 -9 -37 -13 -21 -14 13 -1 22 -4 19 -7 -3 -3 -23 -2 -44 2 l-37 7 34 12
c19 7 48 13 64 13 25 0 23 -2 -15 -13z m120 -5 c0 -5 -7 -7 -15 -4 -8 4 -15 8
-15 10 0 2 7 4 15 4 8 0 15 -4 15 -10z m-243 -6 c-3 -3 -12 -4 -19 -1 -8 3 -5
6 6 6 11 1 17 -2 13 -5z m160 0 c-3 -3 -12 -4 -19 -1 -8 3 -5 6 6 6 11 1 17
-2 13 -5z m-182 -14 c42 -11 1 -11 -50 -1 -34 7 -35 9 -10 9 17 0 44 -4 60 -8z
m228 -7 c-7 -2 -21 -2 -30 0 -10 3 -4 5 12 5 17 0 24 -2 18 -5z m3293 -15 c4
-6 2 -14 -5 -16 -7 -2 -21 -14 -32 -25 l-20 -21 4 21 c3 23 25 53 38 53 4 0
11 -5 15 -12z m-3836 -8 c-14 -4 -43 -8 -65 -8 l-40 1 40 7 c22 4 51 7 65 8
l25 0 -25 -8z m-113 -16 c-3 -3 -12 -4 -19 -1 -8 3 -5 6 6 6 11 1 17 -2 13 -5z
m-134 -11 c-29 -2 -53 -8 -53 -14 0 -15 -17 -11 -24 6 -4 13 6 15 62 13 63 -2
64 -2 15 -5z m260 0 c-7 -2 -19 -2 -25 0 -7 3 -2 5 12 5 14 0 19 -2 13 -5z
m-1840 -10 c-7 -2 -19 -2 -25 0 -7 3 -2 5 12 5 14 0 19 -2 13 -5z m1846 -9 c8
-7 -64 -3 -104 6 -31 7 -24 7 30 3 39 -3 72 -7 74 -9z m-1889 -6 c0 -7 12 -25
28 -41 24 -26 24 -28 5 -18 -25 13 -60 71 -43 71 5 0 10 -5 10 -12z m233 5
c-7 -2 -21 -2 -30 0 -10 3 -4 5 12 5 17 0 24 -2 18 -5z m62 -3 c-3 -5 -11 -10
-16 -10 -6 0 -7 5 -4 10 3 6 11 10 16 10 6 0 7 -4 4 -10z m1178 3 c-13 -2 -33
-2 -45 0 -13 2 -3 4 22 4 25 0 35 -2 23 -4z m261 -1 c3 -5 -8 -6 -25 -4 -16 2
-29 6 -29 8 0 8 49 4 54 -4z m-571 -9 c-7 -2 -21 -2 -30 0 -10 3 -4 5 12 5 17
0 24 -2 18 -5z m4368 -43 c5 0 9 5 9 11 0 8 4 8 13 1 8 -7 18 -7 27 -2 12 8
12 10 -3 10 -10 0 -15 5 -12 10 5 8 11 8 19 1 7 -6 17 -7 21 -3 5 4 5 1 1 -6
-4 -6 -21 -19 -37 -28 -36 -18 -60 -5 -58 30 2 20 2 20 6 -1 2 -13 9 -23 14
-23z m-24 -28 c-5 -30 -18 -45 -30 -33 -8 8 -6 15 8 24 11 9 15 19 10 27 -5 9
-4 11 3 6 7 -4 11 -15 9 -24z m-5409 -32 c7 -11 11 -20 9 -20 -2 0 -12 9 -22
20 -10 11 -14 20 -9 20 5 0 15 -9 22 -20z m5361 -2 c11 -17 10 -18 -8 -9 -13
7 -22 8 -26 1 -3 -5 -1 -10 4 -10 6 0 11 -5 11 -11 0 -5 -4 -8 -9 -5 -5 4 -11
0 -14 -6 -3 -7 -3 3 -2 22 4 41 2 37 19 37 7 0 19 -9 25 -19z m-157 -71 c-15
-7 -26 -7 -33 0 -6 6 1 10 23 10 30 0 30 -1 10 -10z m62 -8 c-16 -11 -47 -31
-69 -45 l-40 -26 24 26 c14 14 32 26 40 26 13 0 13 2 3 9 -11 7 -10 9 3 14 10
5 14 3 9 -4 -4 -7 -1 -10 7 -7 8 3 13 10 12 15 -1 5 8 10 19 10 18 2 17 -1 -8
-18z m-90 -28 c-22 -21 -27 -21 -18 3 3 9 13 16 22 16 13 0 12 -3 -4 -19z
m-156 -49 c6 -18 -15 -14 -22 4 -4 10 -1 14 6 12 6 -2 14 -10 16 -16z m32 8
c0 -5 -4 -10 -10 -10 -5 0 -10 5 -10 10 0 6 5 10 10 10 6 0 10 -4 10 -10z m40
-5 c-7 -8 -17 -12 -22 -9 -6 4 -5 10 3 15 22 14 33 10 19 -6z m55 5 c4 -6 -1
-7 -11 -3 -11 4 -15 3 -10 -5 3 -6 2 -13 -3 -16 -7 -5 -8 11 -2 32 2 6 21 1
26 -8z m-4915 -36 c0 -23 46 -64 58 -52 5 5 18 8 27 6 15 -2 13 -6 -8 -17 -24
-13 -29 -13 -45 3 -9 9 -29 27 -44 41 -18 15 -23 25 -15 28 22 9 27 7 27 -9z
m4833 -16 c-20 -15 -41 -28 -47 -27 -7 0 -6 3 2 6 6 2 12 9 12 14 0 6 -5 7
-11 3 -8 -4 -8 0 0 14 8 16 20 21 46 20 l34 -1 -36 -29z m-65 -14 c-2 -19 -13
-31 -40 -45 -20 -10 -44 -19 -53 -19 -8 0 -15 -4 -15 -10 0 -5 -23 -21 -51
-36 -28 -14 -48 -20 -44 -13 5 7 3 10 -6 7 -8 -3 -13 -10 -12 -16 2 -6 -3 -9
-10 -6 -7 2 -13 15 -13 27 0 20 5 23 35 23 29 -1 36 3 42 24 l7 25 1 -27 c1
-32 20 -37 28 -8 3 11 19 26 36 35 38 19 46 19 21 0 -24 -18 -7 -19 26 0 16 9
19 15 10 15 -9 1 -6 5 8 10 12 5 22 16 22 25 0 8 2 15 5 15 3 0 4 -12 3 -26z
m-95 -11 c-7 -2 -19 -2 -25 0 -7 3 -2 5 12 5 14 0 19 -2 13 -5z m-33 -17 c0
-3 -4 -8 -10 -11 -5 -3 -10 -1 -10 4 0 6 5 11 10 11 6 0 10 -2 10 -4z m-4526
-41 c3 -8 2 -15 -3 -15 -5 0 -14 7 -21 15 -10 12 -10 15 3 15 8 0 17 -7 21
-15z m66 -45 c0 -5 -4 -10 -10 -10 -5 0 -10 5 -10 10 0 6 5 10 10 10 6 0 10
-4 10 -10z m163 -65 c9 -4 17 -11 17 -15 0 -5 -12 -2 -27 6 -33 16 -53 18 -53
4 0 -5 5 -10 12 -10 6 0 9 -3 5 -6 -3 -4 -18 3 -32 14 l-26 20 43 -3 c24 -2
51 -6 61 -10z m3957 0 c-7 -9 -15 -13 -17 -11 -7 7 7 26 19 26 6 0 6 -6 -2
-15z m107 9 c-3 -3 -12 -4 -19 -1 -8 3 -5 6 6 6 11 1 17 -2 13 -5z m69 -6
c-27 -15 -59 -21 -102 -19 -45 1 -71 -18 -60 -44 3 -8 1 -15 -4 -15 -6 0 -10
4 -10 9 0 5 -3 16 -6 25 -4 11 -1 16 10 16 9 0 16 7 16 15 0 12 6 14 28 8 35
-9 76 -7 79 4 2 6 17 10 34 10 23 0 27 -2 15 -9z m-100 -40 c4 -7 3 -10 -1 -5
-5 4 -17 0 -27 -10 -10 -9 -18 -11 -18 -5 0 6 8 16 18 21 22 13 20 13 28 -1z
m-3928 -55 c30 -15 49 -29 43 -31 -6 -2 -35 10 -63 27 -66 38 -52 40 20 4z
m3708 -10 c-6 -6 -36 9 -36 18 0 5 9 4 20 -3 10 -7 18 -14 16 -15z m92 15 c27
0 27 0 -16 -22 -18 -9 -32 -13 -31 -9 3 21 -2 32 -18 36 -10 2 -4 2 12 -1 17
-2 40 -5 53 -4z m-78 -38 c0 -5 -8 -10 -17 -10 -15 0 -16 2 -3 10 19 12 20 12
20 0z m-3600 -31 c10 -6 4 -7 -15 -3 -16 4 -37 11 -45 15 -10 6 -4 7 15 3 17
-4 37 -11 45 -15z m3550 1 c-20 -13 -37 -12 -46 1 -4 7 0 9 14 5 11 -4 23 -2
27 4 4 6 10 9 13 5 4 -3 0 -10 -8 -15z m-93 3 c-14 -4 -16 -8 -6 -19 17 -21 4
-28 -16 -8 -13 14 -14 19 -3 25 7 5 20 8 28 8 10 -1 9 -3 -3 -6z m-3407 -7 c0
-2 -7 -7 -16 -10 -8 -3 -12 -2 -9 4 6 10 25 14 25 6z m3361 -34 c-6 -2 -8 -9
-4 -15 3 -7 2 -9 -2 -4 -5 4 -10 17 -12 29 -3 18 -1 19 13 7 10 -8 12 -15 5
-17z m86 22 c-3 -3 -12 -4 -19 -1 -8 3 -5 6 6 6 11 1 17 -2 13 -5z m-3397 -14
c-12 -8 -12 -10 -1 -10 8 0 12 -2 9 -5 -3 -4 -19 -3 -34 1 l-29 8 25 7 c37 10
47 10 30 -1z m150 -68 c13 -13 13 -14 -2 -9 -9 3 -35 11 -57 17 -23 6 -41 12
-41 14 0 11 87 -9 100 -22z m2994 15 c18 -18 9 -36 -16 -29 -15 3 -19 2 -14
-7 6 -9 0 -10 -20 -5 -19 5 -25 4 -20 -4 5 -8 2 -10 -8 -6 -24 9 -10 22 34 29
23 4 37 11 34 17 -6 10 -29 8 -69 -6 -13 -5 -12 -2 5 8 31 19 57 20 74 3z
m-2906 -9 c7 -7 12 -17 12 -22 0 -8 -3 -8 -8 -1 -4 6 -18 16 -32 22 -22 10
-23 12 -4 12 11 1 25 -4 32 -11z m2965 5 c-7 -2 -19 -2 -25 0 -7 3 -2 5 12 5
14 0 19 -2 13 -5z m-3018 -23 c3 -5 1 -10 -4 -10 -6 0 -11 5 -11 10 0 6 2 10
4 10 3 0 8 -4 11 -10z m42 -16 c-3 -3 -12 -4 -19 -1 -8 3 -5 6 6 6 11 1 17 -2
13 -5z m133 -34 c12 -8 11 -10 -7 -10 -13 0 -23 5 -23 10 0 13 11 13 30 0z
m170 0 c-25 -4 -35 -8 -22 -8 27 -2 30 -22 2 -22 -11 0 -20 5 -20 10 0 6 -17
10 -37 10 -21 0 -43 4 -49 8 -7 4 29 7 80 8 67 1 79 -1 46 -6z m2365 0 c3 -5
0 -7 -8 -4 -8 3 -18 1 -22 -5 -8 -13 -25 -14 -25 -2 0 8 15 15 42 20 4 0 10
-3 13 -9z m50 0 c3 -5 2 -10 -4 -10 -5 0 -13 5 -16 10 -3 6 -2 10 4 10 5 0 13
-4 16 -10z m57 -2 c-14 -7 -26 -8 -32 -2 -5 5 4 10 23 11 30 1 31 1 9 -9z
m-2597 -18 c3 -6 -1 -7 -9 -4 -18 7 -21 14 -7 14 6 0 13 -4 16 -10z m2470 -22
c7 -7 1 -8 -15 -3 -40 12 -59 26 -25 19 17 -4 35 -11 40 -16z m-2305 0 c0 -10
-82 -10 -97 0 -7 5 12 8 42 8 30 -1 55 -4 55 -8z m2265 -16 c-3 -3 -11 0 -18
7 -9 10 -8 11 6 5 10 -3 15 -9 12 -12z m-2005 -22 c20 -6 21 -8 5 -8 -11 0
-29 3 -40 8 -25 11 1 11 35 0z m220 0 c0 -6 -26 -9 -62 -8 l-63 1 60 7 c33 4
61 7 63 8 1 1 2 -2 2 -8z m1310 -19 c20 -8 10 -9 -45 -9 -44 1 -55 3 -28 5 34
3 41 7 37 21 -4 11 -3 13 3 5 5 -7 20 -16 33 -22z m282 14 c29 4 30 4 8 -4
-38 -13 -54 -13 -76 4 -18 14 -17 14 8 5 16 -5 43 -7 60 -5z m84 0 c-36 -19
-47 -19 -22 0 11 8 27 15 35 15 9 0 3 -7 -13 -15z m-2028 -2 c-10 -2 -26 -2
-35 0 -10 3 -2 5 17 5 19 0 27 -2 18 -5z m1808 -15 c3 -3 1 -9 -5 -13 -6 -3
-11 -1 -11 4 0 6 -18 11 -39 11 -22 0 -42 4 -45 8 -5 9 90 -1 100 -10z m27 15
c-7 -2 -19 -2 -25 0 -7 3 -2 5 12 5 14 0 19 -2 13 -5z m-1708 -13 c18 -8 18
-9 -5 -9 -14 0 -32 4 -40 9 -12 8 -12 10 5 9 11 0 29 -4 40 -9z m83 3 c-10 -2
-26 -2 -35 0 -10 3 -2 5 17 5 19 0 27 -2 18 -5z m139 -9 c-3 -3 -12 -4 -19 -1
-8 3 -5 6 6 6 11 1 17 -2 13 -5z m-124 -11 c-7 -2 -19 -2 -25 0 -7 3 -2 5 12
5 14 0 19 -2 13 -5z m1624 1 c-3 -3 -12 -4 -19 -1 -8 3 -5 6 6 6 11 1 17 -2
13 -5z m-1517 -14 c22 -7 21 -8 -12 -9 -20 -1 -40 4 -43 9 -7 12 19 12 55 0z
m1263 -7 c-7 -2 -21 -2 -30 0 -10 3 -4 5 12 5 17 0 24 -2 18 -5z m-1056 -19
c-3 -3 -12 -4 -19 -1 -8 3 -5 6 6 6 11 1 17 -2 13 -5z m126 -1 c-7 -2 -19 -2
-25 0 -7 3 -2 5 12 5 14 0 19 -2 13 -5z m360 -10 c-7 -2 -19 -2 -25 0 -7 3 -2
5 12 5 14 0 19 -2 13 -5z"/>
<path d="M21197 13821 c-34 -5 -50 -20 -138 -121 -54 -63 -99 -122 -99 -131 0
-23 54 -95 119 -157 68 -66 167 -132 265 -178 122 -56 122 -56 195 17 130 132
200 271 208 420 5 78 4 88 -13 97 -38 20 -164 42 -295 52 -142 11 -181 11
-242 1z m343 -62 c36 -5 86 -14 113 -20 47 -11 47 -11 47 -53 0 -89 -46 -208
-117 -304 -45 -60 -116 -132 -131 -132 -23 0 -157 66 -219 108 -68 46 -185
156 -202 189 -12 24 -10 27 102 155 38 43 68 69 85 71 37 7 243 -2 322 -14z"/>
<path d="M22312 13684 c-18 -9 -47 -37 -64 -62 -36 -52 -77 -163 -78 -208 0
-80 136 -116 300 -78 38 8 73 21 78 27 17 22 94 254 90 272 -9 47 -258 84
-326 49z m195 -44 c81 -18 80 -15 41 -131 l-34 -104 -50 -17 c-63 -22 -152
-23 -205 -2 -39 16 -40 18 -34 53 11 60 60 155 94 184 27 22 42 27 86 27 30 0
76 -5 102 -10z"/>
<path d="M17540 13436 c-104 -76 -169 -174 -190 -286 -16 -85 -14 -96 25 -119
19 -11 35 -28 35 -37 0 -12 -21 3 -64 44 -94 91 -145 93 -182 8 -10 -22 -19
-43 -20 -45 -2 -1 -30 6 -63 18 -80 27 -94 27 -133 -8 -18 -16 -49 -35 -69
-44 -29 -12 -38 -22 -43 -50 -13 -69 17 -104 121 -138 l58 -19 -49 6 c-28 3
-72 14 -98 25 -62 24 -89 24 -138 -1 -72 -37 -74 -72 -10 -150 38 -45 65 -89
58 -95 -2 -1 -25 1 -53 5 -27 5 -75 9 -106 9 -81 1 -90 -14 -63 -106 6 -20 -1
-26 -58 -52 -77 -34 -98 -54 -98 -91 0 -28 47 -80 72 -80 6 0 8 -12 5 -27 -3
-15 -3 -33 0 -40 6 -16 57 -17 84 -2 17 9 25 6 45 -17 22 -23 31 -26 65 -21
22 3 67 23 102 45 80 52 137 74 178 70 l34 -3 -4 -83 c-1 -48 2 -95 9 -111 12
-29 46 -51 80 -51 65 0 337 130 440 210 135 106 165 120 358 171 131 34 170
88 123 166 -11 17 -71 74 -133 126 -118 99 -202 182 -258 255 l-32 43 28 -6
c16 -4 35 -9 42 -11 32 -10 262 -34 323 -34 81 0 109 19 154 102 25 45 30 67
33 144 4 96 -16 201 -41 209 -37 11 -485 105 -502 105 -11 0 -40 -15 -65 -34z
m305 -66 c126 -28 230 -52 231 -53 12 -18 24 -84 24 -136 0 -89 -13 -129 -57
-181 l-37 -43 -101 7 c-104 7 -256 28 -332 48 -34 8 -50 20 -79 60 -25 33 -46
51 -65 55 -38 7 -37 24 6 110 23 46 51 84 81 109 25 21 55 47 67 57 11 9 23
17 26 17 3 0 109 -23 236 -50z m-529 -378 c80 -78 106 -90 135 -61 15 15 18
27 13 54 -3 19 -4 35 -2 35 3 0 21 -24 40 -52 75 -114 163 -210 280 -308 138
-115 178 -156 178 -182 0 -24 -37 -41 -154 -72 -128 -34 -208 -70 -274 -124
-117 -95 -282 -186 -414 -227 -83 -26 -90 -18 -86 101 2 81 0 95 -17 114 -18
20 -27 22 -81 17 -61 -4 -84 -14 -231 -98 l-43 -24 -26 29 c-23 25 -32 27 -66
22 -28 -5 -39 -3 -37 6 4 29 -3 39 -41 58 -22 11 -40 25 -40 30 0 5 36 28 79
50 45 22 82 48 85 58 4 10 -1 35 -9 55 l-15 37 35 0 c20 0 68 -5 106 -12 66
-10 72 -10 91 9 18 19 19 25 8 57 -6 21 -34 65 -61 99 -47 57 -49 62 -32 75
31 23 62 25 105 7 59 -23 371 -85 430 -85 81 0 113 34 69 74 -19 17 -151 52
-297 79 -45 8 -97 22 -117 32 -58 27 -59 65 -4 85 17 6 43 22 57 35 l26 25 60
-20 c76 -27 104 -23 123 15 28 54 41 75 49 75 5 0 40 -31 78 -68z m-126 -262
c41 -10 68 -18 59 -19 -21 -1 -222 39 -229 46 -8 8 89 -7 170 -27z"/>
<path d="M19215 13252 c-6 -4 -17 -27 -24 -52 -17 -58 -108 -232 -210 -402
-44 -74 -81 -140 -81 -146 0 -19 88 -88 153 -120 90 -45 172 -63 262 -60 l77
3 25 60 c53 131 101 382 118 628 l7 97 -158 0 c-88 0 -164 -4 -169 -8z m270
-109 c-18 -204 -50 -390 -86 -503 -40 -127 -34 -120 -98 -120 -102 0 -233 47
-315 114 l-28 23 77 129 c79 133 197 362 207 402 6 21 10 22 127 22 l122 0 -6
-67z"/>
<path d="M20403 13195 c-114 -32 -197 -95 -240 -183 -57 -117 -22 -236 84
-291 75 -39 208 -33 308 13 210 96 265 344 98 438 -65 37 -169 46 -250 23z
m202 -54 c85 -38 121 -116 91 -196 -66 -172 -330 -264 -456 -159 -96 81 -71
212 56 304 97 69 223 90 309 51z"/>
<path d="M21323 13025 c-65 -28 -87 -145 -37 -204 49 -59 142 -62 194 -6 33
36 39 118 10 163 -34 55 -104 75 -167 47z m92 -45 c34 -13 59 -69 46 -104 -12
-30 -48 -56 -78 -56 -31 0 -72 39 -79 76 -4 24 0 37 21 62 28 34 47 38 90 22z"/>
<path d="M18572 12625 c-87 -38 -132 -99 -132 -178 0 -79 62 -128 160 -127 81
1 178 59 210 124 38 79 19 145 -50 181 -37 19 -144 19 -188 0z m177 -53 c86
-63 -25 -201 -162 -202 -40 0 -53 5 -78 29 -33 33 -35 50 -15 89 50 95 182
138 255 84z"/>
<path d="M19865 12463 c-11 -3 -46 -16 -77 -30 -67 -30 -70 -39 -35 -123 44
-106 130 -209 250 -300 l58 -43 51 21 c29 12 85 41 125 64 55 31 73 47 73 63
0 30 -94 184 -152 249 -65 73 -133 106 -212 105 -34 -1 -70 -3 -81 -6z m158
-57 c38 -17 92 -65 134 -121 46 -61 95 -153 88 -165 -14 -22 -166 -91 -187
-84 -11 3 -64 50 -117 103 -97 96 -157 188 -149 228 7 41 165 68 231 39z"/>
<path d="M17417 12059 c-122 -29 -217 -120 -217 -210 0 -133 204 -161 359 -49
81 59 108 171 52 224 -43 41 -113 54 -194 35z m127 -49 c34 -12 59 -53 51 -81
-11 -32 -74 -98 -116 -119 -91 -47 -179 -44 -219 7 -69 88 156 242 284 193z"/>
<path d="M21296 15784 c-30 -29 -13 -104 22 -104 28 0 42 21 42 62 0 27 -5 40
-19 48 -25 13 -27 13 -45 -6z"/>
<path d="M21508 15586 c-12 -28 -5 -54 17 -62 35 -14 61 46 33 74 -19 19 -37
14 -50 -12z"/>
<path d="M20954 15455 c-8 -20 4 -35 27 -35 14 0 19 7 19 25 0 18 -5 25 -20
25 -11 0 -23 -7 -26 -15z"/>
<path d="M21225 15154 c-82 -73 -134 -105 -164 -97 -34 8 -75 36 -129 87 l-43
41 20 -45 c39 -85 19 -170 -40 -170 -20 0 -20 -1 5 -31 14 -17 29 -41 32 -54
10 -41 -38 -126 -117 -210 l-74 -78 50 32 c66 42 196 91 240 91 31 0 47 -11
120 -81 l84 -81 -40 93 c-22 52 -41 112 -42 134 -2 38 0 40 29 43 17 2 48 -3
70 -11 l40 -13 -53 50 -52 51 10 45 c6 25 32 91 59 148 27 56 48 102 47 102
-1 -1 -24 -21 -52 -46z"/>
<path d="M21422 15085 c-17 -13 -22 -26 -22 -59 0 -49 13 -66 51 -66 29 0 43
13 52 48 6 25 -10 82 -23 82 -5 0 -14 2 -22 5 -7 3 -23 -2 -36 -10z"/>
<path d="M20587 15044 c-4 -4 -7 -20 -7 -36 0 -26 3 -29 28 -26 23 3 27 8 27
33 0 23 -5 31 -20 33 -12 2 -24 0 -28 -4z"/>
<path d="M21355 14640 c-3 -6 -3 -19 0 -31 10 -31 49 -21 53 14 3 23 0 27 -22
27 -14 0 -28 -5 -31 -10z"/>
<path d="M20494 14516 c-10 -27 1 -71 18 -74 22 -4 41 33 34 64 -7 27 -43 34
-52 10z"/>
<path d="M21067 14493 c-4 -3 -7 -17 -7 -30 0 -19 5 -23 30 -23 27 0 30 3 30
30 0 25 -4 30 -23 30 -13 0 -27 -3 -30 -7z"/>
<path d="M18965 14690 c-3 -6 1 -7 9 -4 18 7 21 14 7 14 -6 0 -13 -4 -16 -10z"/>
<path d="M18858 14683 c7 -3 16 -2 19 1 4 3 -2 6 -13 5 -11 0 -14 -3 -6 -6z"/>
<path d="M18830 14640 c0 -5 5 -10 11 -10 5 0 7 5 4 10 -3 6 -8 10 -11 10 -2
0 -4 -4 -4 -10z"/>
<path d="M18895 14580 c3 -5 8 -10 11 -10 2 0 4 5 4 10 0 6 -5 10 -11 10 -5 0
-7 -4 -4 -10z"/>
<path d="M19070 14578 c0 -9 -6 -19 -12 -21 -10 -4 -10 -6 0 -6 14 -1 28 26
18 36 -3 4 -6 -1 -6 -9z"/>
<path d="M18832 14551 c-11 -7 -11 -9 0 -14 9 -3 15 1 15 9 0 8 -1 14 -1 14
-1 0 -7 -4 -14 -9z"/>
<path d="M18580 14605 c0 -8 5 -15 10 -15 6 0 10 7 10 15 0 8 -4 15 -10 15 -5
0 -10 -7 -10 -15z"/>
<path d="M18830 14395 c0 -8 7 -15 15 -15 8 0 15 7 15 15 0 8 -7 15 -15 15 -8
0 -15 -7 -15 -15z"/>
<path d="M16564 14445 c-10 -25 4 -45 29 -45 29 0 52 24 43 45 -7 20 -65 20
-72 0z"/>
<path d="M16050 14292 c-28 -23 -21 -52 13 -52 32 0 60 23 55 46 -5 26 -39 29
-68 6z"/>
<path d="M15872 13918 c2 -12 11 -24 21 -26 14 -3 18 1 15 20 -2 12 -11 24
-21 26 -14 3 -18 -1 -15 -20z"/>
<path d="M16290 13740 c0 -27 3 -30 30 -30 27 0 30 3 30 30 0 27 -3 30 -30 30
-27 0 -30 -3 -30 -30z"/>
<path d="M18625 13847 c-43 -20 -93 -80 -101 -121 -4 -25 -1 -46 12 -73 54
-109 225 -97 283 20 30 60 23 101 -24 147 -28 28 -43 34 -87 37 -31 2 -66 -2
-83 -10z m131 -60 c38 -33 37 -79 -2 -118 -57 -57 -140 -55 -170 3 -15 29 -15
34 0 65 32 68 121 94 172 50z"/>
<path d="M23886 11791 c-10 -11 -14 -21 -9 -23 11 -6 44 30 34 36 -5 3 -16 -3
-25 -13z"/>
<path d="M15916 13415 c-8 -8 -18 -40 -21 -70 -8 -62 3 -85 41 -85 31 0 55 38
62 97 4 37 1 49 -13 60 -25 17 -50 17 -69 -2z"/>
<path d="M23967 12913 c-12 -11 -8 -23 8 -23 8 0 15 7 15 15 0 16 -12 20 -23
8z"/>
<path d="M23643 11545 c-8 -23 0 -24 20 -3 14 15 15 18 2 18 -9 0 -18 -7 -22
-15z"/>
<path d="M23299 11253 c-13 -15 -12 -15 9 -4 23 12 28 21 13 21 -5 0 -15 -7
-22 -17z"/>
<path d="M22765 10910 c-3 -5 -2 -10 4 -10 5 0 13 5 16 10 3 6 2 10 -4 10 -5
0 -13 -4 -16 -10z"/>
<path d="M22498 10779 c-6 -4 5 -6 25 -5 21 2 40 5 42 8 8 8 -53 5 -67 -3z"/>
<path d="M21105 18920 c-50 -28 -82 -39 -113 -40 -107 -1 -149 -58 -140 -192
8 -129 55 -188 151 -188 68 0 104 20 179 99 37 39 77 71 93 75 48 12 81 43
105 97 48 114 -8 189 -142 189 -55 0 -72 -5 -133 -40z m183 -56 c12 -8 22 -22
22 -31 0 -29 -39 -69 -79 -82 -30 -8 -62 -33 -115 -88 -61 -63 -80 -76 -106
-76 -17 0 -38 7 -47 16 -18 18 -30 119 -19 162 6 22 11 25 55 25 38 0 68 10
137 45 95 49 118 53 152 29z"/>
<path d="M15992 18549 c-70 -35 -104 -71 -141 -149 -48 -102 -28 -232 46 -302
16 -15 71 -53 123 -86 110 -69 128 -93 160 -221 44 -178 122 -286 251 -350 89
-44 200 -61 381 -60 170 1 182 -4 238 -82 123 -173 436 -270 690 -214 36 8 74
14 85 14 11 0 60 -33 110 -75 157 -131 281 -172 379 -125 37 18 50 33 72 77
24 48 26 63 22 132 -8 139 -74 239 -200 303 -34 17 -131 48 -216 70 -184 46
-202 55 -202 107 0 20 -9 52 -20 70 -46 75 -141 80 -367 22 -211 -54 -219 -54
-326 19 -48 33 -128 97 -177 143 -97 89 -191 152 -251 168 -20 6 -72 15 -115
20 -88 11 -96 17 -160 107 -53 75 -69 118 -83 231 -20 160 -64 212 -177 212
-48 0 -74 -6 -122 -31z m174 -71 c14 -10 31 -74 39 -143 14 -121 30 -161 102
-262 75 -105 106 -122 261 -138 73 -7 132 -41 241 -137 116 -104 231 -189 296
-223 71 -36 129 -33 312 15 159 42 242 51 268 30 9 -8 15 -30 15 -59 0 -39 5
-52 28 -73 43 -41 80 -55 239 -94 220 -54 299 -104 338 -214 29 -83 14 -178
-31 -199 -65 -29 -149 4 -274 109 -121 101 -141 108 -262 86 -146 -27 -174
-29 -246 -16 -73 14 -192 54 -232 78 -76 46 -104 70 -138 118 -74 104 -105
115 -317 114 -130 0 -175 3 -239 20 -175 45 -245 123 -303 338 -41 154 -59
182 -166 241 -180 102 -224 193 -152 317 50 85 167 134 221 92z"/>
<path d="M21721 17960 c-29 -12 -309 -187 -335 -209 -10 -9 -30 -38 -44 -66
-24 -45 -27 -60 -27 -165 0 -101 4 -125 29 -200 37 -110 70 -175 145 -287 110
-164 276 -309 423 -370 79 -33 205 -43 259 -20 57 23 307 214 339 258 54 75
75 158 74 299 -1 154 -18 230 -83 365 -55 115 -125 195 -209 239 -28 15 -125
57 -215 93 -147 60 -170 66 -247 69 -47 2 -96 -1 -109 -6z m267 -95 c64 -25
146 -57 182 -71 140 -55 227 -142 290 -293 43 -100 62 -198 61 -311 -1 -164
-35 -243 -138 -323 l-58 -45 -1 92 c-1 102 -21 187 -65 284 -32 72 -33 67 30
134 19 21 32 41 28 44 -5 6 -60 -4 -118 -22 -11 -3 -27 13 -51 49 -53 79 -148
186 -211 236 -52 42 -55 46 -50 80 3 20 14 58 24 84 11 26 19 50 19 52 0 14
-26 0 -86 -46 l-66 -50 -89 28 -88 28 44 27 c138 86 172 88 343 23z m-261
-165 c221 -109 431 -367 509 -625 12 -40 18 -94 18 -160 1 -91 -1 -104 -26
-146 -105 -179 -444 -42 -674 274 -60 82 -149 266 -168 348 -19 79 -20 190 -2
242 45 124 176 149 343 67z"/>
<path d="M22004 17755 c-7 -18 3 -35 21 -35 18 0 26 15 19 34 -8 20 -33 21
-40 1z"/>
<path d="M22152 17493 c5 -26 38 -29 38 -4 0 15 -6 21 -21 21 -14 0 -19 -5
-17 -17z"/>
<path d="M22412 16988 c-7 -7 -12 -16 -12 -20 0 -12 28 -10 36 3 10 17 -10 31
-24 17z"/>
<path d="M21641 17422 c-12 -13 -20 -26 -18 -29 3 -2 14 7 25 21 10 14 22 23
25 20 3 -3 7 -1 11 4 12 20 -22 7 -43 -16z"/>
<path d="M21925 17290 c10 -11 20 -20 22 -20 2 0 -2 9 -9 20 -7 11 -17 20 -22
20 -5 0 -1 -9 9 -20z"/>
<path d="M21928 17103 c7 -3 16 -2 19 1 4 3 -2 6 -13 5 -11 0 -14 -3 -6 -6z"/>
<path d="M21775 17060 c3 -5 8 -10 11 -10 2 0 4 5 4 10 0 6 -5 10 -11 10 -5 0
-7 -4 -4 -10z"/>
<path d="M21923 17054 c4 -4 1 -14 -6 -23 -11 -14 -10 -15 8 -1 11 8 21 15 23
16 2 1 -5 5 -15 8 -9 4 -14 4 -10 0z"/>
<path d="M21965 17000 c-3 -5 -1 -10 4 -10 6 0 11 5 11 10 0 6 -2 10 -4 10 -3
0 -8 -4 -11 -10z"/>
<path d="M21878 16993 c7 -3 16 -2 19 1 4 3 -2 6 -13 5 -11 0 -14 -3 -6 -6z"/>
<path d="M21753 16915 c0 -8 4 -12 9 -9 4 3 8 9 8 15 0 5 -4 9 -8 9 -5 0 -9
-7 -9 -15z"/>
<path d="M14902 17309 c-64 -12 -138 -57 -191 -115 -143 -156 -111 -293 83
-353 114 -35 205 -2 263 97 26 44 28 54 28 162 0 95 -3 120 -19 146 -33 55
-91 77 -164 63z m88 -117 c16 -36 14 -151 -4 -193 -33 -79 -106 -99 -200 -56
-94 43 -96 91 -10 186 84 94 186 123 214 63z"/>
<path d="M23300 16821 c-113 -37 -234 -159 -255 -258 -3 -17 -2 -49 4 -70 31
-114 237 -187 348 -124 79 45 113 121 113 253 0 142 -37 199 -132 204 -29 2
-64 0 -78 -5z m106 -106 c25 -38 20 -166 -8 -216 -31 -55 -79 -76 -138 -60
-60 16 -102 41 -119 72 -12 22 -12 29 3 61 23 49 96 121 148 147 58 29 93 27
114 -4z"/>
<path d="M15194 16014 c-52 -19 -111 -74 -135 -128 -38 -84 -17 -218 44 -285
39 -42 115 -71 187 -71 141 1 234 88 247 231 17 184 -164 316 -343 253z m184
-101 c70 -52 90 -130 52 -206 -58 -117 -226 -116 -287 2 -19 34 -16 111 6 151
26 50 92 83 154 77 27 -2 60 -13 75 -24z"/>
<path d="M14275 15191 c-38 -16 -58 -50 -63 -105 -6 -77 22 -138 80 -167 63
-33 194 -37 313 -11 132 30 145 36 145 71 0 26 -10 37 -72 79 -170 115 -323
165 -403 133z m222 -135 c122 -59 116 -71 -38 -71 -109 0 -111 0 -135 28 -23
27 -32 76 -16 91 16 17 98 -4 189 -48z"/>
<path d="M15040 14660 c-211 -56 -367 -194 -421 -371 -52 -172 1 -296 133
-307 109 -9 267 56 417 169 46 35 106 81 133 101 101 75 318 170 475 207 56
14 72 35 54 69 -12 23 -166 83 -301 119 -135 36 -380 43 -490 13z m376 -81
c32 -5 97 -22 144 -36 l85 -26 -65 -22 c-156 -53 -290 -129 -435 -246 -91 -73
-189 -130 -275 -159 -82 -28 -125 -26 -157 6 -23 23 -25 31 -21 88 11 173 166
333 378 390 66 18 260 21 346 5z"/>
<path d="M13670 14380 c-81 -10 -170 -43 -212 -78 -36 -31 -67 -94 -68 -138 0
-52 47 -131 104 -174 162 -122 356 -86 554 103 93 90 144 160 140 194 -3 24
-10 29 -63 46 -134 40 -339 62 -455 47z m303 -107 c48 -8 87 -18 87 -23 0 -15
-84 -102 -141 -146 -93 -71 -158 -97 -234 -92 -52 3 -73 10 -112 37 -61 42
-87 77 -87 118 0 111 206 156 487 106z"/>
<path d="M13374 13252 c-114 -40 -174 -127 -174 -254 0 -98 45 -176 129 -221
170 -93 377 14 389 200 6 94 -12 148 -72 209 -77 79 -169 101 -272 66z m128
-82 c180 -50 163 -307 -21 -336 -58 -9 -139 31 -169 85 -51 90 -14 197 83 242
47 22 57 22 107 9z"/>
<path d="M13309 9316 c-147 -52 -280 -172 -413 -375 -117 -177 -479 -764
-1474 -2391 -234 -382 -452 -738 -485 -790 l-59 -95 6 -115 c6 -131 29 -227
80 -329 115 -227 323 -353 653 -395 527 -68 3894 -337 8013 -641 531 -39 979
-74 1155 -90 281 -26 4567 -384 5275 -440 2177 -175 2993 -231 3227 -222 168
6 229 20 348 77 177 86 293 227 358 435 52 165 52 161 -58 442 -54 136 -102
251 -107 254 -13 8 -1053 2512 -1239 2983 -43 110 -98 231 -121 270 -61 103
-158 196 -254 242 -92 44 -67 41 -694 89 -430 33 -1306 102 -2280 180 -239 19
-748 60 -1130 90 -382 30 -891 71 -1130 90 -239 19 -689 55 -1000 80 -1192 95
-1714 136 -2260 180 -311 24 -1469 117 -2575 205 -1105 88 -2179 173 -2385
190 -206 17 -433 35 -505 40 -71 6 -271 21 -443 35 -386 31 -419 31 -503 1z
m356 -91 c33 -3 85 -7 115 -10 30 -3 91 -8 135 -10 44 -3 98 -7 120 -10 22 -3
74 -7 115 -11 41 -3 77 -8 79 -10 4 -4 -129 -225 -157 -261 l-17 -22 -185 14
c-102 8 -219 17 -260 20 -41 3 -124 10 -185 15 -60 5 -139 12 -175 15 -138 11
-195 17 -198 20 -8 8 94 117 147 159 62 48 106 73 166 93 38 12 110 12 300 -2z
m865 -70 c63 -3 126 -8 140 -10 14 -3 59 -7 100 -10 95 -6 217 -16 250 -20 14
-2 79 -7 145 -10 66 -4 123 -9 126 -11 3 -2 36 -4 72 -5 37 -1 67 -4 67 -6 0
-2 -34 -69 -75 -148 l-76 -143 -37 3 c-73 7 -178 15 -257 20 -44 3 -98 8 -120
10 -22 3 -74 7 -115 10 -41 3 -102 7 -135 10 -63 6 -135 11 -250 20 -38 3 -96
8 -127 11 l-57 6 71 116 c106 174 106 174 137 168 14 -3 78 -8 141 -11z m1259
-100 c9 -2 59 -6 111 -10 52 -4 111 -8 130 -10 60 -6 172 -15 250 -20 41 -3
109 -8 150 -12 41 -3 90 -7 107 -8 18 -1 35 -4 39 -7 3 -4 -27 -70 -67 -148
l-73 -142 -60 6 c-34 3 -90 8 -126 11 -61 5 -132 11 -240 20 -25 2 -83 7 -130
10 -47 3 -105 8 -130 10 -25 3 -74 7 -110 9 -195 14 -241 19 -238 27 2 4 35
69 73 144 l70 136 114 -6 c63 -4 121 -8 130 -10z m1126 -90 c22 -2 78 -6 125
-10 116 -9 186 -15 245 -20 28 -3 91 -7 140 -10 50 -3 106 -7 125 -10 19 -2
69 -7 110 -11 41 -3 76 -7 78 -9 2 -2 -23 -67 -55 -145 l-58 -142 -100 7 c-89
5 -261 18 -385 30 -25 2 -85 7 -135 10 -49 4 -106 8 -125 11 -19 2 -73 6 -120
9 -123 7 -200 16 -200 23 0 3 30 68 68 144 l67 140 90 -7 c50 -4 108 -8 130
-10z m1135 -90 c50 -5 159 -14 235 -19 254 -18 395 -31 395 -35 0 -3 -22 -69
-48 -146 l-48 -140 -40 1 c-84 2 -364 23 -649 49 -27 2 -74 5 -102 6 -29 2
-53 7 -53 12 0 5 25 67 55 139 30 71 55 134 55 139 0 9 70 7 200 -6z m-4870
-20 c14 -2 68 -6 120 -10 87 -5 155 -10 250 -20 19 -2 85 -7 145 -10 145 -9
286 -23 293 -29 3 -3 -24 -52 -58 -108 -35 -57 -87 -141 -115 -188 -58 -95
-42 -88 -185 -77 -41 4 -111 9 -155 12 -44 3 -98 7 -120 10 -22 3 -83 7 -135
10 -52 3 -108 8 -125 10 -16 2 -73 7 -125 11 -52 4 -104 8 -115 9 -11 1 -42 3
-69 4 -41 1 -47 3 -42 19 4 9 57 97 119 195 l111 178 91 -6 c49 -4 101 -8 115
-10z m5730 -50 c47 -3 108 -8 135 -10 28 -2 91 -7 140 -10 50 -3 106 -7 125
-10 19 -2 69 -7 110 -10 41 -3 93 -7 115 -9 22 -3 78 -7 125 -11 47 -4 86 -7
87 -8 1 -1 -15 -65 -34 -142 -33 -127 -46 -160 -63 -150 -3 1 -50 6 -105 10
-55 3 -125 8 -155 11 -30 2 -82 6 -115 9 -33 2 -94 7 -135 10 -41 3 -93 7
-115 10 -22 2 -80 7 -130 11 -49 4 -101 8 -115 9 -14 1 -39 3 -57 4 l-32 1 51
150 c41 118 55 149 67 146 9 -3 54 -7 101 -11z m-4605 -40 c51 -4 143 -11 263
-20 125 -9 394 -31 497 -40 28 -3 74 -5 103 -6 50 -2 63 -13 43 -35 -5 -5 -30
-49 -56 -99 -103 -196 -136 -253 -148 -257 -7 -3 -55 -1 -107 3 -194 16 -236
20 -300 25 -36 2 -87 7 -114 9 -27 3 -84 7 -125 10 -42 3 -137 10 -211 16
-186 16 -181 16 -222 17 -21 1 -38 7 -38 12 0 9 54 100 158 265 18 28 40 65
49 83 l17 33 71 -6 c38 -3 93 -7 120 -10z m5745 -50 c25 -2 81 -7 125 -10 44
-4 98 -8 120 -10 22 -2 81 -6 130 -10 131 -9 129 -9 137 -20 5 -5 6 -21 3 -35
-2 -14 -7 -67 -11 -119 -3 -51 -8 -101 -9 -110 -2 -9 -4 -20 -4 -24 -1 -5 -9
-6 -18 -3 -10 2 -65 8 -123 11 -58 4 -116 8 -130 10 -14 2 -68 7 -120 10 -52
4 -113 8 -135 10 -22 2 -82 6 -133 10 -51 4 -94 11 -96 14 -4 6 55 242 69 279
5 13 35 12 195 -3z m-4530 -45 c115 -10 195 -17 310 -25 41 -3 100 -7 130 -10
97 -10 153 -14 240 -20 106 -7 173 -15 179 -21 3 -2 -38 -90 -90 -194 l-94
-190 -65 5 c-36 2 -101 7 -145 10 -89 6 -428 34 -490 40 -22 2 -80 7 -130 11
-49 3 -101 8 -115 9 -14 2 -44 4 -67 4 -28 1 -43 6 -43 14 0 6 43 91 95 187
52 96 95 178 95 182 0 11 63 10 190 -2z m5275 -15 c50 -3 115 -8 145 -10 30
-3 116 -10 190 -15 74 -6 152 -13 173 -15 21 -1 89 -6 152 -10 l115 -7 4 -32
c3 -17 8 -62 11 -101 3 -38 8 -94 12 -124 l6 -53 -64 6 c-35 4 -93 8 -129 11
-125 8 -225 16 -260 20 -19 2 -73 7 -120 10 -104 8 -149 11 -265 21 -49 4 -96
7 -104 5 -11 -2 -12 15 -7 96 12 178 18 215 38 208 7 -2 54 -6 103 -10z
m-4100 -80 c22 -2 90 -6 150 -10 61 -4 117 -8 125 -10 8 -2 60 -7 115 -10 55
-3 116 -8 135 -10 19 -3 62 -7 95 -9 33 -3 102 -8 153 -11 50 -4 94 -11 97
-15 5 -9 -17 -71 -54 -151 -11 -24 -38 -84 -60 -134 l-40 -90 -68 0 c-59 0
-233 10 -343 20 -19 1 -75 6 -125 10 -111 8 -185 14 -250 19 -27 3 -84 7 -125
11 -116 9 -190 17 -190 20 0 2 43 89 96 194 l97 192 76 -6 c42 -3 94 -8 116
-10z m5185 -5 c80 -6 165 -13 190 -15 25 -2 79 -6 120 -10 41 -3 98 -8 125
-10 28 -3 79 -7 115 -10 36 -2 97 -7 136 -11 l71 -6 13 -82 c15 -98 17 -108
29 -169 4 -26 5 -49 2 -52 -4 -2 -77 2 -162 10 -84 8 -188 16 -229 19 -41 4
-104 9 -140 12 -36 3 -90 7 -120 9 -30 3 -84 7 -120 10 -36 3 -94 8 -129 10
-35 3 -67 7 -71 10 -7 4 -14 69 -26 230 l-6 75 28 -5 c16 -2 94 -9 174 -15z
m-4045 -86 c55 -4 109 -8 120 -9 11 -1 65 -5 120 -9 55 -4 152 -11 215 -17 63
-5 144 -12 180 -15 35 -3 66 -7 68 -9 3 -3 -79 -247 -120 -357 -13 -35 15 -35
-438 2 -201 16 -384 30 -407 30 -24 0 -43 5 -43 11 0 6 14 40 30 76 17 35 30
68 30 72 0 5 12 35 26 67 14 33 35 82 47 109 24 55 35 66 57 61 8 -3 60 -8
115 -12z m5120 1 c44 -3 100 -8 125 -10 61 -7 142 -14 220 -19 36 -3 106 -8
155 -13 50 -4 95 -7 102 -7 9 1 83 -261 83 -296 0 -8 -32 -9 -107 -5 -60 4
-115 9 -124 10 -9 2 -61 7 -115 11 -55 4 -108 8 -119 9 -11 1 -65 5 -120 9
-55 5 -113 10 -130 11 -16 2 -51 4 -77 4 -55 1 -49 -14 -82 179 l-22 133 65
-5 c36 -3 102 -8 146 -11z m850 -70 c44 -3 116 -7 160 -10 44 -3 94 -8 110
-10 17 -3 73 -7 125 -10 52 -3 111 -8 130 -10 19 -3 69 -7 110 -10 41 -3 111
-8 155 -12 44 -3 91 -7 105 -7 23 -1 29 -12 72 -141 56 -171 57 -178 21 -171
-16 3 -73 8 -128 11 -55 3 -116 8 -135 11 -35 4 -84 8 -250 19 -47 3 -101 8
-120 10 -19 3 -69 7 -110 10 -41 3 -109 8 -150 12 -41 3 -87 7 -102 7 -14 1
-30 5 -35 9 -11 12 -82 290 -76 300 3 4 12 6 21 3 10 -3 53 -8 97 -11z m-4980
-9 c92 -7 227 -18 260 -22 17 -1 147 -13 290 -24 143 -12 261 -23 263 -25 1
-1 -19 -88 -45 -194 -42 -169 -50 -191 -68 -191 -57 -1 -981 75 -989 81 -4 4
20 93 55 198 l64 191 55 -5 c30 -3 82 -7 115 -9z m-6045 -31 c47 -3 114 -8
150 -11 36 -2 119 -8 185 -14 66 -5 152 -12 190 -15 39 -3 90 -8 115 -10 123
-10 256 -19 263 -17 22 6 9 -19 -133 -248 -29 -47 -74 -121 -100 -165 l-48
-80 -89 6 c-48 4 -128 10 -178 13 -49 4 -108 9 -130 11 -22 3 -74 7 -115 10
-41 3 -97 7 -125 10 -68 5 -224 17 -257 20 -16 1 -50 2 -78 3 -58 2 -60 9 -20
72 16 25 45 72 64 105 20 33 56 92 81 130 24 39 61 98 81 132 20 33 42 60 48
58 6 -2 49 -6 96 -10z m7160 -60 c58 -3 125 -8 150 -10 25 -3 81 -7 125 -10
116 -8 202 -15 268 -21 57 -6 58 -7 52 -32 -3 -14 -13 -102 -21 -195 -7 -94
-15 -172 -17 -174 -6 -6 -822 60 -830 67 -7 6 76 360 90 383 3 5 21 6 42 3 20
-3 83 -8 141 -11z m5140 -1 c25 -2 68 -6 95 -9 28 -2 97 -7 155 -10 58 -3 119
-8 135 -10 17 -3 71 -7 120 -10 106 -7 287 -24 291 -28 5 -5 104 -290 104
-300 0 -6 -22 -7 -57 -3 -32 4 -96 9 -143 12 -47 2 -98 6 -115 9 -16 2 -73 7
-125 10 -52 3 -108 8 -125 10 -16 2 -77 7 -135 10 -58 4 -112 8 -120 10 -8 2
-55 7 -105 11 -49 3 -97 10 -105 14 -8 5 -26 44 -39 87 -14 43 -35 109 -47
146 l-22 69 97 -7 c53 -4 116 -8 141 -11z m-11030 -39 c25 -2 83 -6 130 -10
47 -4 103 -8 125 -10 22 -2 76 -6 120 -9 44 -4 105 -8 135 -11 115 -10 168
-14 265 -20 145 -9 140 -6 106 -68 -40 -70 -109 -199 -178 -330 l-57 -109 -50
6 c-28 3 -89 8 -136 11 -47 3 -103 7 -125 10 -22 3 -76 7 -120 10 -73 4 -125
9 -240 20 -22 2 -80 7 -130 10 -49 4 -106 8 -125 10 -19 2 -80 6 -135 10 -55
4 -103 10 -106 13 -3 4 60 114 140 245 l146 238 95 -6 c52 -3 115 -7 140 -10z
m6805 -30 c44 -3 98 -7 120 -10 22 -2 87 -7 145 -11 58 -3 107 -8 110 -9 3 -2
57 -6 120 -10 63 -4 144 -11 179 -15 36 -5 68 -7 72 -5 7 5 16 -65 24 -190 3
-38 8 -103 11 -142 5 -53 3 -73 -6 -73 -31 0 -1014 81 -1017 83 -1 2 4 82 12
178 8 96 15 185 15 197 0 23 2 24 68 18 37 -3 103 -8 147 -11z m5355 -20 c30
-3 84 -7 120 -10 36 -3 94 -7 130 -10 113 -8 224 -17 242 -21 10 -1 68 -6 130
-9 62 -4 142 -10 177 -14 l63 -6 60 -145 c32 -80 62 -150 64 -157 4 -8 -4 -10
-23 -8 -15 2 -64 6 -108 9 -159 12 -211 16 -270 22 -33 3 -85 7 -115 10 -142
10 -401 30 -515 40 -33 3 -61 7 -63 8 -5 6 -102 287 -102 297 0 7 26 9 78 4
42 -3 102 -8 132 -10z m-10900 -50 c14 -2 70 -7 125 -11 55 -4 107 -8 115 -9
8 -1 58 -5 110 -9 52 -4 156 -12 230 -18 170 -14 189 -15 223 -17 l27 -1 -125
-250 c-69 -138 -129 -249 -133 -247 -7 4 -87 12 -247 22 -44 3 -100 8 -125 10
-25 3 -76 7 -115 10 -38 3 -97 7 -130 10 -33 3 -89 7 -125 10 -81 5 -222 18
-232 21 -5 1 -29 2 -54 3 l-46 1 25 43 c22 37 140 256 215 400 l26 49 105 -7
c58 -3 117 -8 131 -10z m6535 -10 c160 -12 173 -13 269 -20 50 -4 98 -9 106
-10 8 -2 60 -6 115 -9 89 -6 131 -9 257 -22 18 -1 51 -3 74 -3 l40 -1 22 -122
c12 -68 24 -134 27 -148 27 -140 28 -152 8 -147 -10 3 -54 8 -98 12 -44 3
-107 8 -140 10 -33 3 -80 7 -105 10 -25 3 -184 16 -354 30 -170 13 -310 26
-311 27 -1 3 -6 51 -34 330 -6 62 -1 83 19 73 3 -2 50 -6 105 -10z m5485 -30
c52 -3 142 -10 200 -15 58 -5 141 -12 185 -15 44 -3 98 -7 120 -10 22 -2 85
-7 140 -10 55 -4 124 -15 154 -26 72 -25 153 -88 208 -162 42 -58 83 -128 83
-143 0 -5 -150 1 -227 11 -15 2 -68 6 -118 9 -49 4 -110 9 -135 11 -25 2 -79
7 -120 10 -41 3 -101 8 -132 10 -103 9 -171 14 -258 20 -94 7 -120 12 -120 25
0 5 -26 71 -59 147 -32 76 -57 142 -54 146 3 4 12 6 21 3 10 -3 60 -7 112 -11z
m-10905 -50 c50 -3 110 -8 135 -10 25 -3 81 -7 125 -10 44 -3 100 -7 125 -10
25 -2 81 -7 125 -10 44 -3 121 -9 170 -15 50 -5 127 -12 173 -16 45 -3 82 -7
82 -8 0 -1 -46 -110 -103 -241 l-103 -240 -75 0 c-76 0 -310 15 -319 20 -3 2
-50 6 -105 9 -55 4 -120 9 -145 11 -178 18 -472 39 -487 36 -7 -1 -13 1 -13 4
0 2 55 115 122 250 l123 245 40 -5 c22 -2 81 -7 130 -10z m6560 -10 c39 -3 88
-8 110 -10 22 -3 78 -7 125 -10 47 -4 103 -8 125 -10 22 -2 78 -6 125 -10 105
-7 205 -16 206 -18 1 -1 22 -86 47 -189 46 -183 55 -234 40 -225 -5 3 -55 8
-113 12 -58 4 -116 9 -130 10 -14 2 -65 6 -115 9 -49 3 -115 8 -145 11 -116
11 -148 14 -250 20 -58 4 -109 11 -114 16 -12 11 -78 379 -71 397 3 9 18 12
47 8 24 -3 75 -8 113 -11z m1000 -80 c28 -2 84 -7 125 -10 41 -3 95 -8 120
-10 25 -2 77 -6 115 -9 89 -7 217 -16 275 -21 25 -2 86 -7 135 -10 50 -4 95
-12 101 -18 6 -7 26 -59 44 -117 18 -58 46 -145 61 -195 16 -49 29 -91 29 -93
0 -4 -69 1 -285 19 -66 5 -156 12 -200 15 -44 2 -93 7 -110 9 -16 3 -68 7
-115 10 -47 3 -101 7 -120 9 -19 2 -86 7 -148 11 -64 4 -116 12 -120 19 -4 6
-30 100 -58 209 l-50 198 75 -6 c42 -3 99 -8 126 -10z m-6020 -35 c215 -17
393 -32 397 -33 7 -2 -154 -472 -165 -484 -8 -7 -835 54 -893 66 l-31 6 96
225 c53 124 100 233 104 243 6 16 14 18 55 13 26 -3 223 -20 437 -36z m1075
-86 c256 -20 467 -38 469 -40 4 -4 -115 -483 -121 -490 -9 -9 -1068 81 -1068
91 0 6 25 83 56 170 31 88 68 195 82 238 l26 78 46 -5 c25 -3 254 -22 510 -42z
m6058 32 c57 -4 118 -9 135 -11 18 -2 73 -6 122 -10 50 -3 110 -8 135 -10 25
-2 86 -7 135 -11 50 -4 104 -8 120 -10 17 -1 84 -5 150 -9 66 -4 123 -10 126
-14 9 -9 139 -394 139 -409 0 -7 -3 -11 -7 -9 -5 3 -51 8 -103 11 -52 4 -115
9 -140 11 -25 2 -81 7 -125 10 -44 3 -98 7 -120 10 -22 2 -76 6 -120 10 -44 3
-100 8 -125 10 -25 2 -85 7 -135 11 -49 3 -101 8 -115 9 -14 2 -35 4 -47 4
-13 1 -23 7 -23 14 0 6 -27 95 -60 197 -59 180 -68 216 -52 207 4 -3 53 -8
110 -11z m-4998 -117 c211 -17 386 -32 388 -34 5 -5 -35 -486 -42 -492 -5 -5
-688 44 -887 64 l-56 6 57 227 c32 125 61 236 64 248 6 19 13 21 49 17 23 -3
215 -19 427 -36z m6270 16 c19 -2 76 -6 125 -10 50 -4 106 -8 125 -10 19 -1
78 -6 130 -9 52 -4 115 -9 140 -12 25 -2 70 -6 100 -9 30 -2 93 -7 140 -11 47
-4 91 -7 98 -7 8 0 24 -23 36 -51 42 -95 146 -352 146 -360 0 -8 -106 -4 -235
8 -22 3 -80 7 -130 10 -49 4 -110 9 -135 11 -68 7 -166 14 -260 20 -47 3 -101
7 -120 10 -19 2 -71 7 -115 10 -135 9 -130 7 -158 88 -14 40 -46 131 -71 202
-25 72 -46 132 -46 134 0 4 155 -5 230 -14z m-13915 -20 c55 -3 114 -8 130
-10 17 -3 75 -7 130 -10 55 -3 109 -8 120 -10 11 -2 58 -7 105 -10 47 -4 105
-8 130 -10 25 -2 93 -7 153 -11 59 -4 107 -10 107 -13 0 -8 -62 -112 -302
-501 -64 -105 -64 -105 -104 -104 -36 0 -206 13 -264 19 -14 2 -68 6 -120 9
-52 4 -111 9 -130 11 -19 2 -73 6 -120 9 -47 4 -116 9 -155 12 -125 11 -140
12 -169 13 -21 1 -27 5 -22 17 6 15 274 456 339 557 24 38 36 47 52 43 11 -3
65 -8 120 -11z m8720 -81 c259 -20 472 -39 475 -41 6 -5 50 -496 45 -501 -6
-6 -1114 81 -1125 88 -4 3 0 106 11 230 10 124 19 236 19 249 0 23 2 24 53 18
28 -3 264 -22 522 -43z m6320 12 c61 -4 146 -11 190 -16 44 -5 125 -12 180
-15 55 -3 118 -8 140 -10 22 -2 76 -7 120 -10 44 -3 103 -8 130 -10 28 -3 86
-7 130 -10 44 -4 83 -9 86 -13 3 -4 35 -81 71 -172 37 -91 74 -182 83 -203
l16 -39 -88 7 c-48 4 -110 8 -138 10 -92 7 -200 16 -235 20 -19 2 -75 7 -125
10 -96 6 -195 13 -260 20 -22 2 -80 7 -130 11 -89 6 -125 11 -130 16 -2 2 -19
44 -39 93 -20 50 -41 99 -46 110 -19 41 -80 198 -80 207 0 5 3 7 8 5 4 -3 57
-8 117 -11z m-13780 -31 c85 -9 153 -15 235 -21 47 -3 101 -7 120 -9 19 -2 80
-6 135 -10 55 -3 111 -8 125 -10 14 -2 70 -6 125 -10 55 -3 119 -8 142 -11
l42 -6 -61 -117 c-33 -64 -64 -120 -68 -126 -4 -5 -31 -55 -60 -110 -29 -55
-70 -131 -92 -168 -21 -38 -38 -72 -38 -77 0 -15 -26 -18 -115 -9 -50 4 -130
11 -180 14 -49 3 -103 8 -120 10 -16 2 -77 7 -135 10 -58 3 -114 8 -125 10
-11 2 -58 7 -105 10 -106 8 -169 13 -240 20 -30 3 -91 7 -134 10 -44 3 -80 6
-82 8 -1 1 42 74 96 162 55 88 114 185 133 215 19 30 58 95 88 143 l54 88 110
-6 c61 -3 128 -8 150 -10z m8515 -65 c206 -17 418 -33 470 -36 52 -3 96 -7 96
-7 2 -3 91 -512 90 -514 -1 -2 -479 36 -904 71 -89 7 -164 15 -167 17 -5 5
-45 432 -45 480 0 28 1 28 43 23 23 -2 211 -18 417 -34z m-7285 -35 c22 -2 81
-7 130 -10 50 -3 110 -8 135 -10 25 -2 83 -7 130 -10 47 -3 132 -10 190 -15
104 -10 273 -23 298 -23 6 0 12 -2 12 -3 0 -3 -302 -608 -307 -614 -3 -4 -458
28 -493 35 -9 2 -63 6 -120 9 -58 4 -125 9 -150 11 -25 3 -74 8 -110 10 -36 3
-96 8 -135 11 -38 4 -76 7 -82 7 -7 0 -13 2 -13 5 0 2 23 47 52 101 88 165
151 282 213 399 l60 113 75 -6 c41 -3 93 -8 115 -10z m8145 -30 c47 -3 110 -8
140 -10 107 -10 155 -14 250 -20 52 -3 111 -8 130 -10 19 -3 71 -7 115 -11 44
-3 80 -7 81 -8 5 -6 124 -499 124 -511 0 -9 -3 -14 -7 -12 -5 3 -51 8 -103 11
-52 4 -102 9 -110 11 -8 2 -68 6 -133 10 -65 3 -123 8 -130 10 -7 2 -109 11
-227 20 -118 9 -216 18 -217 18 -1 1 -16 83 -33 182 -17 99 -35 196 -40 215
-5 19 -12 54 -15 78 l-6 43 48 -5 c26 -3 86 -8 133 -11z m-7010 -60 c168 -11
313 -22 380 -30 19 -2 78 -7 130 -10 52 -3 115 -8 140 -10 101 -11 313 -28
363 -29 9 0 17 -1 17 -1 0 -1 -48 -113 -106 -251 -58 -137 -117 -278 -132
-312 l-26 -64 -61 6 c-59 7 -80 9 -245 21 -47 4 -103 8 -125 10 -22 2 -78 6
-125 10 -47 4 -98 9 -114 11 -16 1 -75 6 -130 10 -56 4 -114 8 -131 10 -16 1
-82 6 -145 9 -63 4 -117 9 -119 11 -4 3 286 590 302 611 5 7 12 11 16 9 3 -2
53 -7 111 -11z m8020 -21 c52 -4 106 -8 120 -9 14 -1 72 -5 130 -9 58 -4 121
-9 140 -11 32 -5 62 -7 240 -20 181 -13 292 -24 296 -28 3 -3 164 -507 164
-513 0 -6 -207 3 -265 11 -44 6 -135 14 -255 20 -58 4 -112 8 -120 10 -8 2
-58 7 -110 10 -52 4 -110 8 -128 10 -17 2 -83 7 -145 10 -61 4 -115 10 -118
13 -7 7 -129 491 -129 509 0 7 17 10 43 8 23 -2 85 -7 137 -11z m-6405 -110
c253 -20 461 -37 463 -39 1 -1 -18 -58 -42 -126 -24 -68 -72 -209 -106 -312
l-62 -189 -31 6 c-18 3 -70 8 -117 11 -47 4 -103 8 -125 10 -22 2 -80 7 -130
10 -49 3 -108 7 -130 10 -22 3 -80 7 -130 10 -49 3 -106 8 -125 10 -19 3 -71
7 -115 11 -44 3 -81 7 -83 9 -1 1 52 129 118 283 66 155 125 293 130 307 5 14
13 25 17 25 5 0 215 -16 468 -36z m7590 17 c44 -6 125 -13 180 -16 55 -3 118
-8 140 -10 22 -2 74 -6 115 -10 41 -3 102 -8 135 -10 33 -3 89 -7 125 -10 229
-16 220 -14 235 -49 8 -17 48 -128 89 -246 40 -118 77 -223 81 -233 7 -16 2
-17 -46 -13 -30 3 -97 8 -149 11 -52 3 -108 8 -125 10 -16 2 -82 7 -145 11
-63 3 -117 8 -120 9 -3 2 -52 6 -110 10 -58 3 -118 8 -135 10 -16 3 -64 7
-105 10 -150 11 -144 8 -165 78 -10 34 -28 94 -40 132 -13 39 -40 124 -60 190
-21 66 -39 123 -42 128 -6 10 46 9 142 -2z m-6422 -111 c269 -21 490 -40 493
-42 2 -3 -31 -141 -75 -309 l-78 -304 -84 1 c-99 1 -273 13 -564 39 -27 2 -86
7 -130 10 -44 3 -102 7 -130 10 -61 6 -205 18 -222 18 -7 0 -13 3 -13 6 0 7
62 182 77 221 6 14 35 97 66 185 82 238 68 215 124 209 26 -3 268 -22 536 -44z
m7602 16 c33 -3 98 -8 145 -11 47 -3 108 -7 135 -10 28 -3 82 -7 120 -10 39
-3 120 -10 180 -15 61 -5 147 -12 191 -15 45 -4 95 -8 110 -10 16 -2 48 -4 72
-4 51 -1 24 51 227 -446 l33 -80 -27 -3 c-14 -2 -75 1 -136 7 -60 6 -146 14
-190 16 -44 3 -98 7 -120 10 -22 2 -80 7 -130 10 -49 3 -112 7 -140 10 -27 3
-81 7 -120 10 -113 9 -310 26 -311 28 -1 1 -36 103 -79 227 -43 124 -83 239
-91 257 -14 37 -7 44 41 37 17 -2 57 -6 90 -8z m-6447 -107 l422 -33 0 -26
c-1 -50 -47 -600 -51 -604 -6 -6 -1058 80 -1065 87 -4 3 28 141 70 305 42 164
76 303 76 307 0 4 28 5 63 2 34 -3 252 -20 485 -38z m7722 6 c74 -4 137 -8
140 -10 3 -2 50 -6 105 -9 55 -4 118 -9 140 -11 53 -6 132 -13 235 -20 47 -3
110 -8 140 -10 30 -3 84 -8 119 -11 36 -2 66 -5 67 -7 1 -1 24 -58 52 -127 28
-69 75 -185 106 -259 30 -74 54 -137 52 -139 -2 -2 -62 1 -133 7 -70 6 -162
13 -203 16 -41 3 -115 10 -165 15 -49 5 -133 12 -185 15 -52 4 -113 8 -135 10
-91 9 -222 18 -246 18 -23 -1 -30 7 -54 66 -14 36 -62 152 -106 258 -76 183
-88 220 -71 210 4 -3 68 -8 142 -12z m-6595 -96 c303 -23 554 -45 558 -49 6
-6 69 -631 64 -637 -1 0 -216 16 -477 37 -261 21 -546 44 -632 50 l-157 13 5
41 c6 56 44 545 44 573 0 19 4 22 23 19 12 -3 270 -24 572 -47z m-9045 -24 c3
-2 55 -6 115 -10 61 -3 121 -8 135 -10 23 -4 61 -7 230 -20 240 -17 302 -23
308 -29 4 -5 -80 -148 -189 -321 -21 -33 -54 -87 -74 -120 -92 -155 -89 -150
-126 -149 -38 1 -200 13 -269 19 -25 3 -88 7 -140 10 -52 3 -106 8 -120 10
-14 2 -61 7 -105 10 -276 19 -355 27 -354 34 0 3 19 36 42 74 23 37 69 111
101 165 49 80 134 218 203 330 14 22 17 23 126 16 62 -3 114 -8 117 -9z
m10299 -76 c278 -22 506 -41 507 -42 1 -1 14 -69 28 -152 46 -255 67 -368 76
-412 20 -87 21 -86 -72 -78 -46 4 -96 9 -113 10 -55 4 -340 27 -365 30 -14 1
-149 13 -300 25 -151 13 -276 24 -277 25 -2 1 -14 127 -28 281 -14 153 -27
296 -30 317 -5 37 -5 37 31 37 20 0 264 -18 543 -41z m-9169 -14 c14 -2 63 -7
110 -10 79 -5 157 -12 240 -20 19 -2 82 -7 138 -10 57 -4 116 -8 130 -10 15
-2 79 -6 142 -10 63 -4 118 -9 121 -10 3 -2 35 -5 72 -6 37 -1 67 -4 67 -6 0
-7 -72 -146 -120 -233 -26 -47 -73 -134 -105 -195 -32 -60 -66 -125 -77 -143
l-20 -32 -86 5 c-48 3 -98 8 -112 10 -14 2 -65 7 -115 10 -49 3 -110 8 -135
10 -44 5 -93 9 -240 20 -41 3 -100 7 -130 10 -30 3 -89 7 -130 10 -41 2 -103
8 -138 11 -86 9 -122 12 -159 13 l-32 1 34 58 c18 32 80 132 136 223 56 90
122 199 148 242 l46 77 95 -5 c52 -3 106 -8 120 -10z m9977 -49 c98 -8 228
-18 288 -21 61 -4 124 -8 140 -10 30 -4 96 -10 240 -21 44 -3 83 -9 86 -12 8
-9 159 -616 159 -638 0 -13 -8 -15 -42 -10 -24 3 -79 8 -123 11 -44 3 -102 7
-130 10 -27 3 -84 7 -125 10 -68 4 -107 8 -240 20 -25 2 -85 7 -135 10 -49 3
-113 8 -141 11 l-51 6 -18 106 c-35 213 -86 507 -91 525 -3 9 -3 17 0 17 3 0
85 -7 183 -14z m-8597 -61 c101 -9 179 -15 260 -20 47 -3 101 -7 120 -10 19
-3 69 -7 110 -10 41 -3 98 -7 125 -10 28 -2 93 -7 145 -11 52 -4 98 -7 103 -6
10 3 -1 -21 -158 -331 l-140 -277 -35 5 c-19 2 -80 6 -135 10 -56 3 -114 8
-130 10 -17 2 -77 6 -135 10 -58 3 -116 8 -130 10 -14 2 -63 7 -110 10 -47 4
-103 8 -125 10 -22 2 -83 7 -135 11 -52 4 -106 8 -120 9 -14 1 -35 3 -47 4
-29 1 -29 0 75 191 46 85 100 184 119 220 20 36 51 94 71 129 l35 64 96 -7
c53 -4 116 -9 141 -11z m9640 -20 c36 -3 97 -8 135 -10 39 -3 120 -10 180 -15
61 -5 148 -12 195 -15 47 -3 103 -7 125 -10 22 -3 81 -8 130 -11 50 -4 99 -8
110 -9 11 -1 38 -3 61 -4 40 -1 41 -2 56 -48 127 -397 190 -604 185 -609 -3
-4 -71 -1 -149 5 -79 7 -168 14 -198 17 -30 2 -77 6 -105 8 -27 3 -93 8 -145
11 -52 3 -108 7 -125 10 -16 2 -79 7 -140 10 -60 4 -117 8 -125 10 -8 2 -55 7
-105 10 -49 4 -93 10 -96 14 -8 8 -159 612 -159 634 0 13 9 15 53 12 28 -3 81
-7 117 -10z m-8510 -70 c52 -3 111 -7 130 -10 19 -2 71 -7 115 -10 44 -4 100
-8 125 -10 67 -6 211 -18 378 -30 200 -15 305 -25 309 -29 5 -5 -250 -591
-260 -598 -6 -3 -27 -5 -46 -3 -20 2 -74 6 -121 10 -47 3 -96 8 -110 10 -14 2
-77 7 -140 10 -63 3 -122 8 -130 10 -8 2 -58 6 -110 10 -52 3 -115 8 -140 10
-25 3 -76 7 -115 10 -38 2 -104 8 -145 11 -109 10 -132 12 -162 13 -28 1 -27
2 125 306 145 291 153 305 177 300 14 -2 68 -7 120 -10z m9750 -30 c30 -2 96
-7 145 -10 50 -3 110 -8 135 -10 25 -2 79 -7 120 -10 41 -3 93 -8 115 -10 22
-2 83 -7 135 -10 123 -8 281 -23 285 -27 2 -2 33 -88 69 -193 37 -104 84 -239
106 -300 21 -60 42 -123 46 -138 l6 -28 -68 6 c-38 3 -91 8 -119 10 -27 3 -88
7 -135 10 -47 3 -128 10 -180 15 -52 5 -135 12 -185 15 -49 4 -103 8 -120 10
-16 2 -75 6 -130 10 -156 10 -175 15 -175 42 0 9 -9 41 -19 72 -11 31 -50 151
-86 266 -36 116 -72 227 -79 247 -8 20 -11 39 -8 43 3 3 24 3 46 1 23 -3 66
-8 96 -11z m-8375 -80 c39 -3 95 -8 125 -10 30 -3 87 -7 125 -10 79 -6 178
-14 247 -20 26 -2 89 -7 140 -11 111 -7 149 -11 154 -17 2 -2 -20 -73 -50
-158 -30 -85 -77 -219 -104 -299 l-49 -145 -39 0 c-22 0 -77 3 -124 7 -47 4
-130 10 -185 13 -55 4 -107 8 -115 10 -8 2 -58 7 -110 10 -52 3 -113 8 -135
10 -22 2 -78 8 -125 11 -47 4 -96 8 -110 10 -14 1 -42 2 -62 3 -21 1 -38 6
-38 11 0 6 41 106 91 223 101 233 143 333 152 359 7 19 6 19 212 3z m9660 -20
c125 -12 166 -15 255 -20 52 -3 106 -8 120 -10 14 -2 66 -7 115 -11 50 -4 101
-8 115 -9 14 -1 70 -6 125 -10 55 -4 111 -9 125 -10 14 -2 41 -4 61 -4 l36 -1
63 -152 c179 -434 208 -507 203 -511 -2 -3 -16 -4 -31 -2 -15 2 -65 6 -112 10
-47 3 -105 8 -130 10 -25 2 -81 7 -125 10 -44 3 -136 10 -205 16 -69 5 -154
12 -190 15 -36 2 -112 9 -170 14 -121 12 -193 18 -232 19 -22 1 -29 8 -37 34
-5 17 -40 118 -76 222 -106 301 -135 386 -135 397 0 9 65 7 225 -7z m-8531
-70 c23 -2 79 -7 126 -10 47 -3 195 -15 330 -26 135 -11 277 -22 315 -25 98
-7 144 -12 154 -18 5 -4 4 -24 -4 -48 -7 -24 -41 -155 -75 -293 -35 -137 -67
-255 -71 -261 -6 -7 -32 -8 -79 -3 -38 4 -114 11 -167 14 -54 3 -116 8 -138
10 -22 2 -78 6 -125 10 -47 3 -107 7 -135 10 -27 3 -81 7 -120 10 -68 5 -126
10 -230 20 -27 2 -86 7 -129 10 -44 3 -81 7 -83 8 -1 2 27 88 63 193 60 174
82 236 130 367 l17 48 90 -6 c50 -4 109 -8 131 -10z m9766 -30 c47 -3 106 -8
130 -10 25 -2 81 -7 125 -10 44 -3 100 -8 124 -10 25 -2 86 -7 135 -10 50 -4
105 -8 121 -10 17 -2 77 -7 135 -11 58 -3 112 -8 120 -10 8 -1 22 -3 31 -3 10
-1 33 -43 69 -128 144 -346 192 -461 205 -491 8 -18 15 -35 15 -39 0 -5 -147
2 -240 12 -14 1 -74 5 -135 9 -60 4 -121 9 -135 11 -14 2 -65 7 -115 10 -49 3
-110 8 -135 10 -25 3 -72 7 -105 9 -33 3 -96 8 -141 11 -44 4 -85 10 -90 13
-5 4 -26 48 -46 97 -49 121 -157 385 -168 410 -46 105 -60 139 -60 146 0 4 17
6 38 4 20 -2 75 -6 122 -10z m-8505 -70 c71 -5 170 -14 240 -20 28 -3 82 -7
120 -11 475 -37 537 -46 520 -74 -1 -3 -6 -45 -9 -95 -4 -49 -8 -110 -10 -135
-3 -25 -8 -90 -12 -145 -5 -55 -9 -104 -10 -110 -1 -5 -2 -32 -3 -58 l-1 -48
-77 6 c-43 3 -100 7 -128 10 -27 3 -86 7 -130 10 -44 3 -100 8 -125 10 -65 7
-133 13 -236 20 -50 3 -108 8 -130 10 -21 2 -79 7 -129 11 -49 4 -101 8 -115
9 -14 1 -45 3 -70 4 -25 1 -51 5 -57 9 -9 6 6 81 62 304 41 163 75 300 75 303
0 4 37 4 83 0 45 -3 109 -8 142 -10z m-7953 -100 c281 -22 338 -26 373 -30 22
-3 83 -7 135 -10 52 -3 109 -8 125 -10 27 -4 167 -15 237 -19 52 -3 59 12
-122 -281 -48 -77 -130 -212 -184 -300 -54 -88 -108 -175 -120 -193 l-21 -33
-78 6 c-43 4 -88 8 -100 10 -12 2 -44 6 -72 9 -217 23 -265 29 -333 47 -101
25 -229 88 -286 142 l-46 42 88 145 c49 80 121 197 160 260 40 63 86 141 104
173 28 48 36 57 55 52 12 -3 51 -7 85 -10z m9543 -30 c308 -25 588 -45 623
-45 34 0 62 -3 62 -7 0 -5 4 -46 9 -93 6 -47 12 -123 16 -170 3 -46 8 -98 10
-115 2 -16 6 -61 10 -100 3 -38 8 -90 12 -113 l6 -44 -59 6 c-33 3 -95 8 -139
11 -44 3 -102 7 -130 10 -27 3 -81 7 -120 10 -38 3 -92 8 -120 10 -27 2 -86 7
-130 10 -44 3 -102 7 -130 10 -57 6 -136 12 -245 20 -41 3 -106 8 -145 12 -85
8 -100 9 -147 11 l-37 2 5 68 c2 37 9 114 14 172 5 58 13 146 16 195 4 50 8
101 9 115 1 14 3 35 3 48 2 16 8 22 25 22 12 0 274 -20 582 -45z m-8285 -70
c3 -2 57 -6 120 -10 63 -3 126 -8 140 -10 14 -3 66 -7 115 -10 50 -3 108 -7
130 -10 67 -8 145 -14 235 -20 47 -3 108 -7 135 -10 28 -3 79 -7 114 -10 35
-2 66 -7 68 -9 3 -3 -15 -42 -40 -88 -68 -126 -102 -190 -190 -353 -44 -82
-97 -181 -118 -218 -22 -38 -39 -72 -39 -76 0 -3 -12 -23 -26 -44 -22 -33 -29
-37 -57 -33 -40 6 -128 14 -232 21 -44 3 -103 8 -132 11 -29 3 -76 7 -105 9
-29 2 -73 6 -98 9 -25 3 -85 8 -135 11 -49 3 -135 10 -190 15 -55 5 -125 12
-155 14 -30 3 -93 8 -140 13 -47 4 -91 7 -97 6 -24 -2 -25 -5 124 237 50 81
210 342 289 473 l59 97 110 -6 c61 -3 112 -8 115 -9z m9345 -11 c55 -3 107 -8
115 -9 9 -2 58 -6 110 -10 52 -4 111 -8 130 -10 53 -5 167 -14 240 -19 36 -3
106 -8 155 -13 50 -4 100 -7 112 -6 13 1 24 -5 27 -15 9 -29 106 -585 106
-605 0 -19 -6 -19 -106 -13 -105 7 -165 12 -259 21 -27 2 -90 7 -140 10 -49 3
-106 8 -125 10 -19 3 -71 7 -115 10 -44 4 -96 8 -115 10 -19 2 -80 7 -135 11
-55 4 -109 8 -120 9 -11 1 -37 3 -57 4 -37 1 -38 2 -38 39 0 20 -6 100 -14
177 -14 134 -19 191 -32 350 l-5 71 83 -8 c46 -4 128 -10 183 -14z m-7960
-100 c39 -3 86 -7 105 -9 19 -2 76 -7 125 -10 50 -4 106 -8 125 -10 19 -2 80
-6 135 -10 55 -3 111 -8 125 -10 14 -2 70 -6 125 -10 128 -7 187 -15 183 -25
-2 -4 -93 -188 -203 -408 l-200 -401 -60 4 c-53 4 -170 13 -245 20 -14 2 -72
6 -130 9 -58 4 -116 9 -130 11 -14 2 -70 7 -125 10 -55 3 -116 8 -135 11 -19
2 -64 6 -100 9 -152 11 -225 17 -229 21 -5 4 5 25 60 124 45 82 101 185 199
370 100 187 150 281 164 302 11 18 17 18 211 2z m9200 1 c22 -2 78 -6 125 -10
113 -9 184 -14 245 -20 28 -2 91 -7 140 -10 50 -4 126 -10 169 -13 l80 -7 79
-318 c44 -175 78 -320 76 -322 -3 -2 -36 0 -74 5 -39 4 -120 11 -180 15 -61 3
-124 8 -140 10 -17 2 -77 6 -135 9 -58 4 -118 9 -135 11 -16 3 -57 7 -90 9
-67 6 -227 18 -265 20 -24 2 -25 6 -76 292 -28 160 -54 304 -58 319 l-7 28
103 -7 c57 -4 121 -9 143 -11z m1140 -90 c44 -4 96 -8 115 -10 19 -2 76 -7
125 -10 50 -3 137 -10 195 -15 58 -5 139 -12 180 -15 41 -3 98 -7 125 -10 28
-2 82 -7 120 -10 39 -4 73 -10 76 -13 4 -4 21 -54 39 -112 17 -58 40 -130 50
-160 36 -107 110 -347 110 -355 0 -7 -200 1 -265 10 -37 5 -131 13 -250 20
-49 3 -106 8 -125 10 -34 5 -101 10 -240 20 -201 14 -356 28 -362 34 -8 7
-158 601 -158 623 0 14 -4 14 265 -7z m-9110 -10 c22 -2 81 -7 130 -10 50 -3
110 -8 135 -10 25 -3 81 -7 125 -10 44 -3 134 -10 200 -15 66 -6 145 -13 175
-15 79 -6 220 -17 258 -20 19 -2 36 -6 39 -9 3 -3 -3 -27 -14 -53 -12 -26 -89
-209 -173 -407 l-153 -358 -76 6 c-42 4 -105 9 -141 11 -36 3 -90 7 -120 10
-30 2 -93 7 -140 10 -47 3 -101 8 -120 10 -19 2 -78 7 -130 11 -52 4 -106 8
-120 9 -14 2 -72 5 -130 9 -58 4 -118 9 -135 11 -16 2 -68 7 -115 11 -47 3
-86 7 -88 9 -2 1 88 185 200 409 l203 406 75 -5 c41 -3 93 -8 115 -10z m10310
-85 c50 -5 124 -11 165 -15 41 -3 100 -8 130 -11 80 -6 154 -12 245 -19 44 -3
103 -8 130 -10 28 -2 86 -7 130 -10 132 -11 156 -13 159 -17 3 -3 70 -191 110
-308 14 -41 46 -133 71 -204 l45 -128 -102 7 c-57 3 -125 8 -153 11 -120 9
-185 14 -265 19 -47 3 -98 8 -115 10 -16 2 -66 7 -110 10 -73 5 -150 12 -245
21 -19 2 -58 4 -86 5 l-52 2 -47 146 c-25 80 -71 222 -101 314 -30 93 -54 173
-54 178 0 11 31 11 145 -1z m-8900 -25 c70 -8 147 -14 240 -20 50 -3 108 -7
130 -10 22 -2 70 -7 108 -10 37 -3 95 -7 130 -10 34 -3 96 -7 137 -10 40 -3
76 -8 78 -10 5 -4 -13 -58 -163 -485 -53 -151 -101 -289 -106 -305 l-9 -31
-82 7 c-46 4 -121 10 -168 14 -47 3 -110 8 -140 10 -30 3 -89 7 -130 10 -41 3
-95 8 -120 10 -25 2 -92 7 -150 10 -58 3 -121 8 -140 10 -19 3 -69 7 -110 11
-41 3 -76 6 -77 8 -2 1 21 58 51 127 29 68 99 232 156 364 56 132 111 259 121
283 l19 44 92 -6 c51 -4 111 -8 133 -11z m10195 -80 c25 -2 81 -6 125 -10 44
-3 103 -8 130 -10 28 -2 84 -7 125 -10 110 -8 328 -25 515 -41 50 -4 97 -8
105 -7 11 0 54 -94 144 -310 148 -356 146 -351 120 -344 -10 4 -59 9 -109 11
-90 6 -179 13 -245 21 -19 3 -78 7 -130 10 -52 3 -111 8 -130 10 -19 2 -73 6
-120 10 -47 3 -114 8 -150 11 -122 10 -145 12 -251 19 -59 4 -111 10 -116 14
-10 6 -45 100 -133 356 -29 83 -63 181 -76 218 l-23 69 87 -7 c48 -3 107 -8
132 -10z m-9075 -10 c119 -10 191 -16 240 -20 50 -4 138 -11 270 -20 39 -2 95
-7 125 -10 93 -9 162 -15 245 -21 110 -7 146 -12 152 -18 3 -3 -19 -101 -49
-218 -31 -117 -77 -300 -104 -406 l-49 -194 -90 7 c-49 4 -106 8 -125 10 -19
2 -78 7 -130 10 -52 3 -111 8 -130 10 -19 3 -75 7 -125 10 -49 3 -108 8 -130
10 -22 2 -85 6 -140 10 -55 3 -152 10 -215 16 -63 5 -134 11 -158 13 -23 2
-45 5 -47 8 -2 2 16 62 41 133 46 132 147 423 206 593 l33 94 60 -6 c33 -4 87
-9 120 -11z m10590 -110 c39 -3 102 -8 140 -11 39 -3 88 -7 110 -10 22 -2 83
-6 135 -9 52 -3 109 -7 125 -10 17 -2 71 -7 120 -11 50 -3 91 -7 93 -9 1 -1
57 -132 122 -291 66 -159 127 -304 135 -322 l16 -34 -98 7 c-54 3 -150 10
-213 16 -63 5 -149 12 -190 15 -41 2 -115 9 -165 14 -49 5 -135 12 -190 16
-55 4 -109 8 -120 9 -11 1 -41 3 -67 4 -26 0 -53 7 -61 15 -8 8 -31 57 -51
108 -35 88 -66 164 -170 411 -26 60 -46 112 -46 116 0 3 69 1 153 -6 83 -6
184 -15 222 -18z m-9218 0 c15 -2 69 -6 118 -9 50 -4 110 -9 135 -11 45 -4
107 -9 250 -20 41 -3 95 -8 119 -10 24 -2 87 -7 140 -11 53 -3 105 -8 116 -9
11 -1 44 -3 73 -4 l52 -1 -5 -67 c-7 -91 -25 -307 -30 -363 -6 -69 -14 -157
-20 -245 -3 -44 -8 -97 -11 -118 l-6 -37 -46 4 c-26 3 -99 8 -162 11 -63 3
-126 8 -140 10 -14 3 -72 7 -130 10 -58 4 -116 8 -130 10 -14 2 -68 6 -120 10
-105 7 -187 13 -270 19 -46 4 -123 10 -272 21 -16 1 -43 2 -62 3 l-34 2 99
388 c54 213 101 398 105 411 7 23 8 23 105 16 53 -3 110 -8 126 -10z m1328
-106 c77 -6 163 -13 190 -15 28 -2 82 -6 120 -9 74 -6 115 -10 260 -20 50 -4
106 -9 125 -10 19 -2 78 -7 130 -10 52 -4 104 -9 114 -11 11 -2 71 -6 135 -10
64 -3 117 -7 117 -8 1 0 4 -30 8 -66 3 -36 10 -110 15 -165 6 -55 13 -134 16
-175 3 -41 8 -95 10 -120 21 -198 25 -244 25 -280 l0 -41 -72 6 c-40 3 -93 7
-118 10 -25 3 -79 7 -120 10 -41 3 -122 10 -180 16 -58 5 -134 12 -170 14 -36
3 -87 8 -115 10 -48 4 -130 12 -225 20 -25 2 -79 7 -120 10 -41 3 -91 8 -110
10 -19 2 -75 7 -125 11 -49 3 -101 8 -115 9 -14 1 -38 3 -53 3 l-29 2 6 98 c4
53 8 113 11 132 2 19 7 73 10 120 4 47 8 101 10 120 2 19 9 105 15 190 6 92
15 157 22 161 6 4 25 5 42 3 17 -2 94 -9 171 -15z m-9482 -111 c163 -82 245
-96 927 -158 899 -82 2723 -228 5000 -400 366 -27 721 -54 790 -60 69 -5 186
-14 260 -20 74 -5 257 -19 405 -30 1576 -118 1897 -142 2280 -175 226 -19 597
-51 825 -70 489 -42 2830 -237 3105 -260 105 -8 440 -35 745 -60 305 -25 609
-49 675 -55 144 -13 1152 -91 1530 -120 1463 -109 1544 -111 1762 -39 112 37
251 144 329 252 l20 29 47 -119 c26 -65 47 -132 47 -148 0 -17 -9 -64 -21
-105 -48 -176 -161 -321 -303 -390 -214 -105 -241 -104 -2126 40 -611 47
-1422 111 -1765 140 -132 11 -377 31 -545 45 -168 14 -498 41 -735 60 -633 52
-2463 205 -3280 275 -651 56 -849 72 -1170 95 -383 28 -1162 86 -1610 120
-104 8 -280 21 -390 30 -866 65 -1231 93 -1855 141 -393 30 -769 59 -835 64
-66 6 -349 28 -630 50 -1919 150 -2943 241 -3119 275 -232 44 -390 153 -475
326 -22 46 -47 110 -55 142 -16 60 -23 217 -12 236 4 6 27 -6 62 -34 30 -25
83 -59 117 -77z m11052 -12 c74 -6 150 -12 235 -21 19 -2 85 -7 145 -10 61 -4
112 -8 115 -10 3 -2 61 -6 130 -10 69 -3 132 -8 140 -10 8 -2 53 -7 100 -10
46 -3 85 -7 86 -8 0 -1 35 -192 75 -424 76 -432 76 -427 39 -425 -71 3 -211
14 -230 17 -14 2 -68 7 -120 10 -52 3 -142 10 -200 15 -58 5 -139 12 -180 15
-41 3 -93 7 -115 10 -22 2 -74 7 -115 10 -125 9 -293 26 -297 29 -1 1 -5 33
-8 71 -3 39 -12 133 -20 210 -7 77 -17 178 -20 225 -4 47 -9 101 -10 120 -2
19 -7 69 -11 110 -3 41 -9 79 -11 84 -11 17 18 21 104 14 48 -4 124 -9 168
-12z m1255 -101 c47 -3 103 -7 125 -10 22 -3 81 -7 130 -10 50 -4 101 -8 115
-10 14 -2 75 -7 135 -10 61 -4 117 -8 125 -10 15 -3 191 -17 218 -18 6 0 16
-16 22 -36 5 -20 54 -215 109 -435 l99 -398 -66 6 c-37 4 -96 9 -132 11 -36 3
-87 7 -115 10 -27 3 -77 7 -110 10 -33 3 -82 7 -110 10 -27 2 -88 7 -135 10
-47 3 -132 10 -190 15 -59 6 -140 13 -180 16 -41 4 -78 11 -81 16 -3 5 -25
118 -49 251 -23 133 -57 322 -75 420 l-32 179 56 -6 c31 -3 94 -8 141 -11z
m1125 -90 c61 -3 121 -8 135 -10 14 -3 68 -7 120 -10 52 -3 140 -10 195 -15
55 -5 134 -12 175 -15 70 -5 160 -12 255 -20 22 -2 81 -7 130 -10 50 -4 93 -9
96 -11 4 -2 10 -16 13 -31 7 -27 108 -352 126 -403 5 -14 27 -86 50 -160 23
-74 51 -162 61 -194 23 -73 24 -86 2 -82 -10 2 -61 7 -113 11 -52 4 -111 8
-130 10 -19 2 -75 6 -125 9 -49 4 -110 8 -135 11 -59 6 -146 13 -245 20 -44 3
-98 7 -120 10 -22 3 -76 7 -120 10 -44 3 -100 7 -125 10 -25 3 -74 8 -110 11
-36 3 -67 8 -70 11 -9 8 -217 848 -213 856 3 4 12 6 21 3 10 -3 67 -8 127 -11z
m1365 -110 c30 -2 96 -7 145 -10 50 -3 110 -7 135 -10 25 -2 79 -7 120 -10 41
-4 95 -8 120 -10 25 -3 83 -7 130 -10 47 -3 132 -10 190 -15 58 -6 114 -10
126 -10 16 0 25 -11 37 -47 9 -27 45 -131 81 -233 169 -484 204 -590 196 -595
-5 -3 -23 -3 -42 -1 -18 3 -73 8 -123 11 -49 4 -103 8 -120 10 -16 2 -70 6
-120 10 -49 3 -110 8 -135 10 -25 2 -81 7 -125 10 -44 3 -98 7 -120 10 -22 2
-80 7 -130 11 -49 4 -101 8 -115 9 -14 1 -45 3 -70 4 l-46 1 -33 103 c-72 223
-121 378 -161 507 -23 74 -50 159 -61 188 -28 79 -27 84 24 78 23 -3 67 -8 97
-11z m1275 -100 c50 -4 106 -8 125 -10 19 -2 80 -7 135 -10 55 -3 111 -8 125
-10 14 -2 66 -7 115 -11 50 -4 101 -8 115 -9 14 -1 68 -5 120 -9 52 -4 111 -9
130 -11 19 -2 82 -7 140 -10 58 -4 108 -10 111 -13 4 -4 29 -63 57 -132 28
-69 77 -190 110 -270 33 -80 90 -216 126 -303 l65 -159 -147 7 c-81 4 -149 8
-152 10 -3 1 -61 6 -129 10 -68 4 -131 8 -140 10 -9 1 -63 6 -121 9 -58 4
-127 9 -155 11 -27 2 -90 7 -140 11 -49 3 -106 7 -125 9 -19 2 -78 6 -130 10
-52 4 -98 10 -101 13 -3 4 -22 54 -42 112 -20 58 -48 139 -62 180 -74 207
-188 538 -192 558 -5 22 -3 23 33 18 22 -3 80 -8 129 -11z m1364 -110 c36 -3
101 -7 145 -10 45 -3 104 -7 131 -10 68 -7 145 -13 235 -20 291 -22 464 -36
466 -38 2 -4 146 -351 165 -398 l18 -46 -29 -49 c-40 -71 -116 -152 -183 -195
-117 -76 -299 -115 -481 -104 -55 3 -130 8 -164 10 -35 1 -68 7 -72 11 -4 5
-41 88 -80 184 -40 96 -117 283 -172 415 -55 132 -103 246 -106 253 -3 10 4
12 29 8 19 -3 63 -8 98 -11z"/>
</g>
</svg>
