<svg xmlns="http://www.w3.org/2000/svg" data-name="Layer 1" viewBox="0 0 900 600"><path fill="#ffe3c2" d="m663.442 499.052-103.845-10.218-103.877-9.912c-34.63-3.254-69.241-6.71-103.858-10.103-17.31-1.675-34.61-3.45-51.912-5.219l-25.952-2.648-12.976-1.324-6.488-.662c-.522-.043-1.128-.141-1.702-.223a22.302 22.302 0 0 1-1.715-.384 17.143 17.143 0 0 1-11.845-11.917c-.15-.56-.268-1.15-.38-1.7l-.282-1.605-.564-3.212-1.129-6.424-4.514-25.693-9.025-51.387-9.02-51.389-9.14-51.367-9.18-51.36-4.65-25.668-2.308-12.85a16.405 16.405 0 0 1 8.418-16.97 17.749 17.749 0 0 1 6.381-1.94l12.923-1.774 25.837-3.6 51.674-7.203 206.712-28.704L604.4 89.386l51.696-7.043 25.851-3.5c1.076-.145 2.123-.308 3.357-.38a11.492 11.492 0 0 1 1.788-.011l.894.04.886.13a17.43 17.43 0 0 1 14.54 13.935 17.723 17.723 0 0 1 .292 3.557c.011.617-.026 1.148-.056 1.69l-.09 1.627-.362 6.512-.722 13.023-1.444 26.047-2.949 52.09-6.159 104.166-6.288 104.16-3.016 52.086-1.485 26.045a16.23 16.23 0 0 1-5.487 11.596 15.99 15.99 0 0 1-12.204 3.896Zm.03-.298a15.662 15.662 0 0 0 11.939-3.865 15.843 15.843 0 0 0 5.313-11.352l1.374-26.05 2.704-52.104 5.149-104.222 5.278-104.214 2.77-52.1 1.415-26.049.708-13.024.353-6.512.089-1.628c.03-.544.066-1.098.05-1.569a14.62 14.62 0 0 0-.242-2.927 14.324 14.324 0 0 0-11.956-11.434 19.408 19.408 0 0 0-6.048.233l-25.847 3.53-51.7 7.017-103.416 13.908-206.87 27.535-51.722 6.856-25.86 3.43-12.927 1.741a16.64 16.64 0 0 0-6.021 1.807 15.356 15.356 0 0 0-7.914 15.869l2.272 12.831 4.586 25.68 9.291 51.34 9.331 51.333 9.451 51.31 9.446 51.313 4.722 25.656 1.18 6.414.59 3.207.295 1.603c.111.514.21.99.343 1.48a14.76 14.76 0 0 0 7.402 9.058 14.91 14.91 0 0 0 5.785 1.621l6.49.646 12.98 1.29 25.958 2.582c17.306 1.716 34.613 3.429 51.91 5.24 34.598 3.579 69.202 7.096 103.786 10.814l103.766 11.006Z"/><path fill="#ffe3c2" d="m672.83 509.026-399.425-40.238a15.496 15.496 0 0 1-13.698-12.675l-49.249-273.822a15.496 15.496 0 0 1 13.164-18.098l469.415-63.83a15.496 15.496 0 0 1 17.56 16.204l-20.74 377.89a15.496 15.496 0 0 1-17.027 14.569Z"/><path fill="#fd8b66" d="M380.94 125.625s4.031-7.485 7.281.516 2.322 27.633-5.642 11.846"/><path fill="#fd8b66" d="M383.562 152.434s.44-3.032 7.937-7.13-9.373-15.386 4.892-21.388c0 0 1.267 10.794 2.298 13.35s6.244 10.086 1.138 16.064-17.125 16.207-19.014 15.836c-4.897-.962-9.742-1.931-13.86-2.762-6.665-1.345-11.426-2.328-11.426-2.328a36.555 36.555 0 0 0-.073-19.516c-3.002-10.57-1.195-26.696 7.57-22.144a9.5 9.5 0 0 1 3.929 3.29c1.868 2.622 3.392 7.114 1.807 14.58 0 0-.07.16-.201.405-.763 1.437-3.67 6.014-7.694.954 0 0-.368-1.279.986-3.286a4.237 4.237 0 0 0 .254-4.108"/><path fill="#fd8b66" d="M368.559 140.69c.13-.244.201-.404.201-.404 1.585-7.466.06-11.958-1.807-14.58.187-.414 3.435-7.169 6.825-.78 3.497 6.579 4.779 28.628-5.22 15.765Z"/><path fill="#fd8b66" d="M369.418 134.614s18.997.068 22.782 2.739c0 0 4.788 7.39-.451 9.385s-6.764 7.927-6.764 7.927l-12.713-3.466-6.25-12.006Z"/><path fill="#fd8b66" d="M373.78 124.925s3.042-8.653 6.464.07 2.95 28.042-4.211 16.407"/><path fill="#d04719" d="M387.555 144.965c-2.285 0-4.408-3.63-5.869-6.527l1.785-.9c2.446 4.847 3.883 5.534 4.184 5.4 1.629-.74 2.022-10.557-.36-16.421-.786-1.933-1.671-3.023-2.492-3.069-1.12-.053-2.5 1.759-2.985 2.653l-1.76-.95c.213-.394 2.154-3.886 4.851-3.7 1.687.091 3.113 1.542 4.238 4.314 2.057 5.061 3.063 17.3-.664 18.993a2.222 2.222 0 0 1-.928.207Z"/><path fill="#d04719" d="M379.816 146.038c-2.105 0-3.962-3.02-4.635-4.111l1.703-1.05c1.795 2.917 2.813 3.247 3.05 3.126 1.757-.877 2.05-11.837-.62-18.643-.945-2.408-1.819-3.26-2.283-3.26h-.007c-.767.013-1.848 1.876-2.302 3.158l-1.886-.665c.261-.742 1.688-4.448 4.152-4.492l.046-.001c1.59 0 2.945 1.483 4.141 4.53 2.53 6.446 3.313 19.337-.347 21.163a2.242 2.242 0 0 1-1.012.245Z"/><path fill="#d04719" d="M373.59 145.66c-2.435 0-4.904-3.177-5.821-4.356l-.399-.513.307-.573c.056-.105.1-.192.129-.251 1.197-5.739.622-10.467-1.667-13.68l-.334-.47.237-.523c.186-.411 1.894-4.018 4.546-4.1 1.526-.052 2.898 1.05 4.073 3.263 2.545 4.787 4.264 18.262.412 20.756a2.678 2.678 0 0 1-1.483.447Zm-3.864-5.107c2.244 2.761 3.667 3.363 4.26 2.981 2.26-1.463 1.556-13.16-1.091-18.138-.765-1.443-1.574-2.245-2.244-2.204-.95.03-1.989 1.44-2.541 2.44 1.711 2.68 3.226 7.338 1.628 14.862Z"/><path fill="#d04719" d="m356.477 164.388-1.9-.622a35.892 35.892 0 0 0-.085-18.933c-2.34-8.243-1.902-19.472 2.483-23.048 1.236-1.009 3.36-1.872 6.464-.28a10.656 10.656 0 0 1 4.325 3.616c1.843 2.587 3.678 7.35 1.974 15.373l-.064.198s-.082.187-.233.47c-.701 1.32-2.228 3.572-4.565 3.788-1.646.15-3.258-.75-4.794-2.682l-.124-.156-.054-.19c-.051-.177-.452-1.795 1.118-4.122a3.215 3.215 0 0 0 .194-3.092l1.775-.92a5.236 5.236 0 0 1-.31 5.13 4.088 4.088 0 0 0-.863 2.314c1.027 1.228 2.003 1.806 2.874 1.727 1.494-.138 2.661-2.13 2.983-2.737.057-.108.101-.196.13-.256 1.198-5.738.623-10.466-1.666-13.68a8.664 8.664 0 0 0-3.466-2.934l-.11-.048c-1.762-.915-3.176-.906-4.324.03-3.612 2.947-3.942 13.492-1.824 20.952a37.246 37.246 0 0 1 .062 20.102ZM380.833 170.167a1.128 1.128 0 0 1-.213-.02l.385-1.962c1.75-.185 12.914-9.477 18.062-15.504 3.908-4.576 1.102-10.162-.573-13.5-.302-.6-.562-1.118-.732-1.54-.852-2.112-1.814-9.214-2.196-12.24-5.87 3.019-4.243 7.077-2.527 11.357 1.363 3.4 2.909 7.254-1.06 9.424-6.772 3.7-7.427 6.402-7.433 6.43l-1.974-.322c.053-.36.734-3.647 8.448-7.864 2.192-1.198 1.76-2.94.163-6.924-1.808-4.507-4.282-10.678 4.82-14.508l1.227-.515.155 1.32c.348 2.966 1.427 11.099 2.231 13.094.148.364.385.835.665 1.391 1.648 3.281 5.076 10.11.306 15.696-3.932 4.604-16.495 16.186-19.754 16.187Z"/><path fill="#e8233b" d="m610.735 99.66 14.488-26.422a2 2 0 0 1 3.742.745l3.274 29.955a2 2 0 0 0 3.24 1.342l23.497-18.866a2 2 0 0 1 3.172 2.12l-8.438 28.927a2 2 0 0 0 2.48 2.48l28.928-8.438a2 2 0 0 1 2.12 3.172l-18.867 23.497a2 2 0 0 0 1.342 3.24l29.956 3.274a2 2 0 0 1 .744 3.742l-26.422 14.488a2 2 0 0 0 0 3.508l26.422 14.488a2 2 0 0 1-.744 3.742l-29.956 3.274a2 2 0 0 0-1.342 3.24l18.867 23.497a2 2 0 0 1-2.12 3.172L656.19 209.4a2 2 0 0 0-2.48 2.48l8.438 28.928a2 2 0 0 1-3.172 2.12L635.48 224.06a2 2 0 0 0-3.24 1.342l-3.274 29.956a2 2 0 0 1-3.742.744l-14.488-26.422a2 2 0 0 0-3.508 0l-14.488 26.422a2 2 0 0 1-3.742-.744l-3.274-29.956a2 2 0 0 0-3.24-1.342l-23.497 18.867a2 2 0 0 1-3.172-2.12l8.438-28.928a2 2 0 0 0-2.48-2.48l-28.928 8.438a2 2 0 0 1-2.12-3.172l18.867-23.497a2 2 0 0 0-1.342-3.24l-29.955-3.274a2 2 0 0 1-.745-3.742l26.423-14.488a2 2 0 0 0 0-3.508l-26.423-14.488a2 2 0 0 1 .745-3.742l29.955-3.274a2 2 0 0 0 1.342-3.24l-18.866-23.497a2 2 0 0 1 2.12-3.172l28.927 8.438a2 2 0 0 0 2.48-2.48l-8.438-28.928a2 2 0 0 1 3.172-2.12l23.497 18.867a2 2 0 0 0 3.24-1.342l3.274-29.955a2 2 0 0 1 3.742-.745l14.488 26.423a2 2 0 0 0 3.508 0Z"/><path fill="#ffb957" d="m284.13 281.037 7.105-12.957a.98.98 0 0 1 1.835.365l1.605 14.69a.98.98 0 0 0 1.59.658l11.522-9.252a.98.98 0 0 1 1.555 1.04l-4.138 14.185a.98.98 0 0 0 1.216 1.216l14.186-4.138a.98.98 0 0 1 1.04 1.556l-9.252 11.522a.98.98 0 0 0 .658 1.59l14.69 1.605a.98.98 0 0 1 .364 1.835l-12.956 7.105a.98.98 0 0 0 0 1.72l12.956 7.104a.98.98 0 0 1-.365 1.835l-14.69 1.606a.98.98 0 0 0-.657 1.589l9.252 11.522a.98.98 0 0 1-1.04 1.556l-14.186-4.138a.98.98 0 0 0-1.216 1.216l4.138 14.185a.98.98 0 0 1-1.555 1.04l-11.523-9.252a.98.98 0 0 0-1.589.658l-1.605 14.69a.98.98 0 0 1-1.835.365l-7.105-12.957a.98.98 0 0 0-1.72 0l-7.105 12.957a.98.98 0 0 1-1.834-.365l-1.606-14.69a.98.98 0 0 0-1.589-.658l-11.522 9.252a.98.98 0 0 1-1.556-1.04l4.138-14.185a.98.98 0 0 0-1.216-1.217l-14.186 4.139a.98.98 0 0 1-1.04-1.556l9.253-11.522a.98.98 0 0 0-.659-1.59l-14.69-1.605a.98.98 0 0 1-.364-1.835l12.957-7.105a.98.98 0 0 0 0-1.72l-12.957-7.104a.98.98 0 0 1 .365-1.835l14.69-1.606a.98.98 0 0 0 .658-1.589l-9.252-11.522a.98.98 0 0 1 1.04-1.556l14.185 4.139a.98.98 0 0 0 1.216-1.217l-4.138-14.185a.98.98 0 0 1 1.556-1.04l11.522 9.252a.98.98 0 0 0 1.589-.658l1.606-14.69a.98.98 0 0 1 1.834-.365l7.105 12.957a.98.98 0 0 0 1.72 0Z"/><path fill="#fd8b66" d="M496.165 257.613c-1.066 4.612-1.996 8.441-3.219 8.79-2.918.835-.417-12.925-2.918-19.596-2.502-6.671-7.506-9.173-5.42-21.265 2.084-12.092-6.672-10.007-10.842-9.173s-14.176 10.007-27.936 3.753c-13.76-6.255-20.847 8.756-20.847 8.756s-11.675 61.71 0 73.384 18.888 9.59 18.888 9.59-.542 15.844-2.627 15.844c0 0 5.837 26.268 52.12-5.837 0 0-.835-40.028 2.918-40.862 3.753-.834 12.196-7.088 10.632-15.531-1.563-8.444-10.749-7.853-10.749-7.853Z"/><path fill="#5e1212" d="M424.983 228.878s7.088-15.01 20.847-8.756 23.767-2.919 27.936-3.753 12.926-2.918 10.841 9.173 2.919 14.594 5.42 21.265 0 20.43 2.92 19.597 4.169-21.492 9.59-25.34 4.989-8.64 3.127-11.77c0 0 9.798-17.303-10.841-17.511 0 0 .834-9.799-11.05-10.841 0 0 0-11.258-15.427-8.548 0 0-18.346-11.674-26.893 4.378 0 0-7.923-2.501-15.01 9.173s-11.05 7.297-12.093 14.177 2.502 13.968 10.633 8.756Z"/><path fill="#5e1212" d="M441.244 239.259a1.002 1.002 0 0 1-.43-.097c-7.65-3.634-12.54-.238-12.743-.093a1 1 0 0 1-1.176-1.618c.24-.177 6-4.264 14.778-.096a1 1 0 0 1-.43 1.904ZM475.225 239.259a.998.998 0 0 1-.522-.148c-5.89-3.609-13.094.001-13.166.037a1 1 0 0 1-.915-1.778c.334-.172 8.262-4.17 15.126.036a1 1 0 0 1-.523 1.853ZM441.243 253.436a1.003 1.003 0 0 1-.446-.106c-6.41-3.206-10.669-.217-10.846-.087a1 1 0 0 1-1.184-1.611c.216-.16 5.375-3.865 12.924-.091a1 1 0 0 1-.448 1.895ZM461.082 252.642a.997.997 0 0 1-.74-1.668c.154-.167 3.85-4.067 12.502-1.058a1 1 0 1 1-.656 1.889c-7.321-2.545-10.257.4-10.378.527a1.01 1.01 0 0 1-.728.31Z"/><path fill="#d04719" d="M450 244.722a82.14 82.14 0 0 1-2.373 8.69c-.894 2.844-1.898 5.637-2.899 8.414a269.317 269.317 0 0 0-1.48 4.141c-.24.683-.461 1.372-.659 2.035-.096.33-.18.662-.241.957-.03.141-.058.29-.068.378-.01.055-.008.071-.02.074a.997.997 0 0 0-.17-.27.663.663 0 0 0-.146-.125l.02.01.036.027c.033.018.02.05.09.072a2.865 2.865 0 0 0 .36.146c.279.092.606.149.937.224a20.048 20.048 0 0 0 2.13.233c1.466.117 2.96.137 4.483.22a24.042 24.042 0 0 1-4.4 1.25 19.683 19.683 0 0 1-2.34.259 7.286 7.286 0 0 1-1.276-.07 5.246 5.246 0 0 1-.714-.164 2.248 2.248 0 0 1-.409-.175l-.209-.108-.102-.057a1.754 1.754 0 0 1-.243-.226 1.777 1.777 0 0 1-.385-.778 3.103 3.103 0 0 1-.07-.482 5.787 5.787 0 0 1-.003-.738 12.087 12.087 0 0 1 .16-1.241c.132-.791.325-1.536.516-2.28.398-1.48.875-2.914 1.383-4.333a78.663 78.663 0 0 1 3.557-8.27 58.665 58.665 0 0 1 4.535-7.813ZM448.124 282.665a33.393 33.393 0 0 0 3.735-1.37 11.652 11.652 0 0 0 2.891-1.822 12.922 12.922 0 0 0 2.268-2.58c.392-.48.642-1.063 1.047-1.605a18.506 18.506 0 0 1 1.108-1.796 10.023 10.023 0 0 1 .316 2.175 9.074 9.074 0 0 1-.322 2.2 7.883 7.883 0 0 1-2.475 3.891 7.685 7.685 0 0 1-4.262 1.818 6.956 6.956 0 0 1-4.306-.911ZM443.871 311.852s19.472-2.71 25.309-8.965a32.2 32.2 0 0 1-25.93 17.736ZM500.035 263.276a8.994 8.994 0 0 1 2.303 3.327 9.432 9.432 0 0 1 .749 4.096 6.614 6.614 0 0 1-.516 2.254 4.569 4.569 0 0 1-1.56 1.946 4.25 4.25 0 0 1-4.312.26 6.59 6.59 0 0 0 2.718-1.999 5.368 5.368 0 0 0 .676-2.632c.063-1.039.005-2.192-.045-3.394a36.378 36.378 0 0 1-.013-3.858Z" opacity=".74"/><path fill="#376f92" d="M537.978 346.876c-10.007-7.088-44.615-25.017-44.615-25.017-46.282 32.105-52.119 5.837-52.119 5.837 2.085 0 2.627-15.844 2.627-15.844s-7.214 2.085-18.888-9.59a8.687 8.687 0 0 1-.628-.712L378.7 249.78l6.88-79.693-34.4-6.88s-23.766 87.56-20.013 107.297c3.752 19.736 79.638 101.39 79.638 101.39-8.339 31.688-24.183 155.523-24.183 155.523h130.924s0-30.02 1.667-47.95 26.269-64.628 32.106-87.143-3.336-38.36-13.342-45.448Z"/><path fill="#376f92" d="m492.53 367.724-38.882 76.302-57.435-66.92s-35.65 20.013-35.024 23.14 65.94 138.22 99.891 120.708 68.975-86.31 68.975-86.31l21.265-42.32"/><path fill="#78c1d0" d="M334.571 166.28a9.573 9.573 0 0 0-3.855 3.756 9.573 9.573 0 0 0-3.755-3.856 9.573 9.573 0 0 0 3.856-3.755 9.573 9.573 0 0 0 3.754 3.856ZM529.535 311.805a9.573 9.573 0 0 0-3.856 3.755 9.573 9.573 0 0 0-3.754-3.856 9.573 9.573 0 0 0 3.855-3.754 9.573 9.573 0 0 0 3.755 3.855Z"/><path fill="#e6560f" d="M298.315 388.961a9.573 9.573 0 0 0-3.856 3.755 9.573 9.573 0 0 0-3.754-3.855 9.573 9.573 0 0 0 3.855-3.755 9.573 9.573 0 0 0 3.755 3.855ZM415.34 178.462a20.646 20.646 0 0 0-8.314 8.098 20.646 20.646 0 0 0-8.098-8.315 20.646 20.646 0 0 0 8.315-8.098 20.646 20.646 0 0 0 8.098 8.315Z"/><path fill="#ffb957" d="M553.144 286.44a20.646 20.646 0 0 0-8.314 8.097 20.646 20.646 0 0 0-8.098-8.315 20.646 20.646 0 0 0 8.315-8.097 20.646 20.646 0 0 0 8.097 8.315Z"/><path fill="#78c1d0" d="M340.447 430.719a33.93 33.93 0 0 0-13.665 13.307 33.93 33.93 0 0 0-13.307-13.665 33.93 33.93 0 0 0 13.664-13.307 33.93 33.93 0 0 0 13.308 13.665Z"/><path fill="#ffb957" d="M399.218 210.95a5.876 5.876 0 0 0-2.367 2.304 5.876 5.876 0 0 0-2.304-2.366 5.876 5.876 0 0 0 2.366-2.305 5.876 5.876 0 0 0 2.305 2.366ZM574.421 320.653a5.876 5.876 0 0 0-2.366 2.305 5.876 5.876 0 0 0-2.305-2.366 5.876 5.876 0 0 0 2.367-2.305 5.876 5.876 0 0 0 2.304 2.366ZM356.443 457.823a5.876 5.876 0 0 0-2.366 2.305 5.876 5.876 0 0 0-2.304-2.367 5.876 5.876 0 0 0 2.366-2.304 5.876 5.876 0 0 0 2.304 2.366ZM433.394 163.926a5.876 5.876 0 0 0-2.367 2.304 5.876 5.876 0 0 0-2.304-2.366 5.876 5.876 0 0 0 2.366-2.305 5.876 5.876 0 0 0 2.305 2.367Z"/><path fill="#e6560f" d="M569.75 247.088a5.876 5.876 0 0 0-2.366 2.305 5.876 5.876 0 0 0-2.305-2.366 5.876 5.876 0 0 0 2.367-2.305 5.876 5.876 0 0 0 2.304 2.366ZM298.315 460.158a5.876 5.876 0 0 0-2.366 2.305 5.876 5.876 0 0 0-2.305-2.366 5.876 5.876 0 0 0 2.366-2.305 5.876 5.876 0 0 0 2.305 2.366Z"/><path fill="#133852" d="M410.806 371.893s4.795-31.376 11.362-41.07a62.04 62.04 0 0 0-20.185 31.427ZM477.671 396.883l-33.8 35.751 9.777 11.392 24.023-47.143z"/><path fill="#fff" d="M573.73 167.828q-1.835-.625-3.336-1.272a10.223 10.223 0 0 1-2.585-1.563 6.463 6.463 0 0 1-1.689-2.19 7.185 7.185 0 0 1-.604-3.106 6.823 6.823 0 0 1 2.731-5.67q2.73-2.126 7.65-2.126a20.892 20.892 0 0 1 3.336.25 9.962 9.962 0 0 1 2.648.771 4.615 4.615 0 0 1 1.73 1.334 3.02 3.02 0 0 1 .626 1.898 3.334 3.334 0 0 1-.5 1.855 5.198 5.198 0 0 1-1.21 1.313 9.438 9.438 0 0 0-2.46-1.021 12.345 12.345 0 0 0-3.377-.438 5.568 5.568 0 0 0-2.752.521 1.52 1.52 0 0 0-.875 1.313 1.211 1.211 0 0 0 .542 1.022 5.595 5.595 0 0 0 1.625.73l2.211.708a16 16 0 0 1 6.025 3.19 6.819 6.819 0 0 1 2.105 5.275 6.939 6.939 0 0 1-2.793 5.733q-2.795 2.19-8.214 2.189a19.132 19.132 0 0 1-3.565-.313 11.27 11.27 0 0 1-2.877-.917 5.307 5.307 0 0 1-1.918-1.501 3.295 3.295 0 0 1-.688-2.064 3.125 3.125 0 0 1 .709-2.064 5.393 5.393 0 0 1 1.542-1.314 11.311 11.311 0 0 0 2.856 1.585 9.952 9.952 0 0 0 3.69.667 4.954 4.954 0 0 0 2.878-.625 1.803 1.803 0 0 0 .834-1.46 1.429 1.429 0 0 0-.668-1.272 8.65 8.65 0 0 0-1.876-.854ZM595.077 153.36a8.851 8.851 0 0 1 2.148-.793 11.443 11.443 0 0 1 2.898-.375 10.444 10.444 0 0 1 3.69.605 3.215 3.215 0 0 1 2.064 1.897q.75 2.168 1.626 5.045t1.75 5.942q.876 3.064 1.71 6.046.835 2.98 1.46 5.274a3.433 3.433 0 0 1-1.501.938 7.14 7.14 0 0 1-2.377.355 7.317 7.317 0 0 1-1.688-.167 3.005 3.005 0 0 1-1.126-.5 2.464 2.464 0 0 1-.71-.876 7.578 7.578 0 0 1-.479-1.25l-.75-2.878h-7.547q-.334 1.251-.667 2.585-.334 1.335-.667 2.585a10.622 10.622 0 0 1-1.23.355 7.225 7.225 0 0 1-1.564.146 5.455 5.455 0 0 1-3.148-.73 2.345 2.345 0 0 1-1.022-2.022 4.24 4.24 0 0 1 .167-1.168q.167-.583.375-1.376.292-1.125.814-2.793.52-1.667 1.147-3.607.624-1.939 1.333-3.982t1.335-3.857q.626-1.813 1.146-3.231.52-1.417.813-2.168Zm5.004 5.378q-.585 1.752-1.314 3.899-.729 2.148-1.313 4.357h5.17q-.584-2.251-1.188-4.399t-1.105-3.857ZM619.72 178.002a3.6 3.6 0 0 1-3.878-3.878v-21.557q.458-.082 1.459-.229a13.328 13.328 0 0 1 1.918-.146 8.701 8.701 0 0 1 1.689.146 3.004 3.004 0 0 1 1.23.522 2.257 2.257 0 0 1 .75 1.042 5.102 5.102 0 0 1 .25 1.751v16.47h9.548a5.47 5.47 0 0 1 .542 1.23 5.164 5.164 0 0 1 .25 1.605 3.207 3.207 0 0 1-.708 2.356 2.582 2.582 0 0 1-1.876.688ZM637.23 156.487a3.599 3.599 0 0 1 3.878-3.878h13.76a5.035 5.035 0 0 1 .521 1.21 5.426 5.426 0 0 1 .23 1.584 3.05 3.05 0 0 1-.689 2.252 2.494 2.494 0 0 1-1.813.666h-8.798v3.878h9.381a5.078 5.078 0 0 1 .521 1.188 5.199 5.199 0 0 1 .23 1.564 3.113 3.113 0 0 1-.668 2.252 2.422 2.422 0 0 1-1.792.667h-7.672v4.378h10.716a5.003 5.003 0 0 1 .52 1.21 5.398 5.398 0 0 1 .23 1.583 3.131 3.131 0 0 1-.688 2.273 2.455 2.455 0 0 1-1.814.688h-12.175a3.6 3.6 0 0 1-3.877-3.878Z"/><path fill="#fd8b66" d="m366.02 395.583-16.298-27.025s-2.918-10.007 1.668-9.59c0 0-1.46-8.548 3.544-9.173 0 0-2.71-11.884 9.173-10.007 0 0 .626-2.71 8.756-4.795s11.884-.209 11.884 1.876v6.039s3.127-3.954 6.045-2.912 8.548 10.424 8.34 13.134a36.13 36.13 0 0 1-2.085 7.505l-6.672 15.01 2.24 3.506Z"/><path fill="#133852" d="M492.53 367.724q-9.44 19.218-19.008 38.371l-9.53 19.173-9.587 19.144a.845.845 0 0 1-1.39.179l-.01-.012-28.922-33.286-14.46-16.643-14.4-16.695 1.629.288c-6.608 3.757-13.182 7.614-19.639 11.616-3.222 2.007-6.427 4.05-9.507 6.21a42.957 42.957 0 0 0-4.346 3.393 5.73 5.73 0 0 0-.762.835c-.093.084-.05.24-.022-.172a.71.71 0 0 0-.023-.15l.01.012c.009.015 0 .003.016.043l.116.291c.338.822.746 1.697 1.138 2.548 3.222 6.856 6.71 13.635 10.263 20.357q5.349 10.08 11.036 19.977c7.58 13.185 15.531 26.172 24.308 38.565 4.402 6.181 8.988 12.235 13.951 17.942a100.65 100.65 0 0 0 16.308 15.518 35.769 35.769 0 0 0 9.694 5.142 18.658 18.658 0 0 0 5.231.846 12.51 12.51 0 0 0 5.056-1.043 20.708 20.708 0 0 0 2.418-1.251c.813-.453 1.633-.892 2.405-1.422l2.354-1.522 2.28-1.646a95.644 95.644 0 0 0 8.627-7.282 167.321 167.321 0 0 0 15.344-16.738c4.792-5.889 9.281-12.03 13.587-18.299 4.31-6.266 8.4-12.688 12.339-19.2 3.947-6.505 7.78-13.096 11.284-19.844l21.002-40.645-20.078 41.112a370.737 370.737 0 0 1-23.077 39.573c-4.25 6.353-8.691 12.588-13.452 18.588a169.473 169.473 0 0 1-15.34 17.145 97.983 97.983 0 0 1-8.749 7.57l-2.336 1.729c-.8.548-1.62 1.073-2.433 1.605-.8.551-1.659 1.019-2.51 1.497a22.833 22.833 0 0 1-2.652 1.38 15.092 15.092 0 0 1-6.055 1.275 21.223 21.223 0 0 1-6.019-.94 38.306 38.306 0 0 1-10.461-5.472 103.187 103.187 0 0 1-16.835-15.872c-5.068-5.781-9.726-11.88-14.193-18.1-8.888-12.476-16.987-25.468-24.583-38.731q-5.679-9.96-11.003-20.11c-3.545-6.774-7.011-13.572-10.247-20.531-.402-.882-.798-1.737-1.183-2.679l-.146-.374-.095-.297-.043-.158a2.167 2.167 0 0 1-.032-.327 2.01 2.01 0 0 1 .016-.334l.053-.233.068-.229.07-.157a3.306 3.306 0 0 1 .3-.523 8.152 8.152 0 0 1 1.15-1.282 45.143 45.143 0 0 1 4.672-3.629c3.17-2.205 6.408-4.248 9.665-6.259 6.522-4.006 13.118-7.84 19.782-11.594a1.304 1.304 0 0 1 1.63.288l14.317 16.766 14.257 16.817 28.514 33.636-1.4.167 9.854-19.008 9.91-18.979q9.904-18.982 19.873-37.93Z"/><path fill="#ffb957" d="M552.284 421.779h93.843v106.023h-89.933a3.91 3.91 0 0 1-3.91-3.91Zm0 0"/><path fill="#e8a452" d="M646.127 421.779h19.551v106.023h-19.551z"/><path fill="#133852" d="M644.172 421.779h-3.91v-3.91a21.506 21.506 0 1 0-43.011 0v3.91h-3.91v-3.91a25.416 25.416 0 1 1 50.831 0Zm0 0"/><path fill="#376f92" d="M624.622 437.42h-3.91v-19.551a21.506 21.506 0 1 0-43.012 0v19.55h-3.91v-19.55a25.416 25.416 0 1 1 50.832 0Zm0 0"/><path fill="#e8233b" d="M565.97 421.779h3.91v23.461h-3.91z"/><path fill="#e8233b" d="M575.745 476.52h-15.64v-27.37l7.82-5.865 7.82 5.865Zm0 0"/><path fill="#5e1212" d="M690.395 528.417h-356.92a1 1 0 0 1 0-2h356.92a1 1 0 0 1 0 2Z"/><path fill="#ffb957" d="m623.429 293.197 25.076-4.982 6.04 30.4-25.076 4.982z"/><path fill="#ffb957" fill-rule="evenodd" d="M637.347 280.12a8.893 8.893 0 0 1-3.539 1.523c-3.807.757-7.044-.914-9.533-3.667a24.19 24.19 0 0 1-5.33-11.233c-.949-4.78-1.504-9.121.613-12.274 1.373-2.038 3.873-3.495 7.994-4.313s6.987-.43 9.035.93c3.162 2.103 4.309 6.327 5.259 11.107a24.998 24.998 0 0 1-.242 11.182 1.46 1.46 0 1 0 2.816.778 28.055 28.055 0 0 0 .288-12.529c-1.122-5.646-2.77-10.486-6.506-12.969-2.545-1.696-6.098-2.38-11.219-1.362s-8.143 3.008-9.846 5.548c-2.503 3.723-2.176 8.825-1.054 14.47a27.182 27.182 0 0 0 6.024 12.624c3.195 3.532 7.39 5.54 12.27 4.57a11.855 11.855 0 0 0 4.685-2.016 1.462 1.462 0 0 0-1.715-2.369Zm0 0"/><path fill="#e8233b" fill-rule="evenodd" d="m623.338 274.257 6.13-9.168a1.458 1.458 0 0 1 2.023-.403l9.168 6.13a18.109 18.109 0 0 1-.464 2.171 2.92 2.92 0 1 0 5.631 1.549c.021-.074.04-.148.06-.226l6.193 4.139a1.453 1.453 0 0 1 .62.928l9.1 45.8a1.462 1.462 0 0 1-1.146 1.716l-34.35 6.825a1.462 1.462 0 0 1-1.716-1.147l-9.1-45.8a1.453 1.453 0 0 1 .218-1.095l4.139-6.192c.379.5.776.978 1.186 1.432a15.63 15.63 0 0 0 7.941 4.954 5.835 5.835 0 0 0 10.926-2.187l.016-.01a2.921 2.921 0 0 0-2.272-5.233 5.835 5.835 0 0 0-8.4 1.391 10.645 10.645 0 0 1-3.886-2.831 17.984 17.984 0 0 1-2.017-2.743Zm26.177 34.02a4.38 4.38 0 0 0-5.147-3.44l.284 1.431-.284-1.431a4.38 4.38 0 0 0-3.44 5.147l.568 2.862a4.38 4.38 0 0 0 5.147 3.44h.006a4.377 4.377 0 0 0 3.436-5.14Zm-7.145-13.644-10.33 19.906a1.46 1.46 0 0 0 2.591 1.345l10.33-19.906a1.46 1.46 0 0 0-2.59-1.345Zm4.282 14.213a1.462 1.462 0 0 0-1.715-1.147l-.285-1.431.285 1.431a1.462 1.462 0 0 0-1.147 1.716l.569 2.862a1.462 1.462 0 0 0 1.715 1.147h.006a1.452 1.452 0 0 0 1.142-1.71Zm-11.147-11.175a4.38 4.38 0 0 0-5.147-3.44h-.005a4.377 4.377 0 0 0-3.436 5.14l.57 2.869a4.38 4.38 0 0 0 5.147 3.44l-.285-1.43.285 1.43a4.38 4.38 0 0 0 3.44-5.146Zm-2.862.569a1.462 1.462 0 0 0-1.716-1.147l-.005.001a1.452 1.452 0 0 0-1.143 1.709l.57 2.868a1.462 1.462 0 0 0 1.716 1.147l.284 1.431-.284-1.431a1.462 1.462 0 0 0 1.147-1.716Zm0 0"/><path fill="#fff" d="M281.102 306.055a6.805 6.805 0 0 1-2.011 5.23 8.131 8.131 0 0 1-10.393 0 7.81 7.81 0 0 1 0-10.414 8.128 8.128 0 0 1 10.393 0 6.744 6.744 0 0 1 2.011 5.184Zm-8.984 0a3.175 3.175 0 0 0 .514 1.99 1.576 1.576 0 0 0 2.547 0 3.178 3.178 0 0 0 .515-1.99 2.997 2.997 0 0 0-.515-1.922 1.61 1.61 0 0 0-2.547 0 2.994 2.994 0 0 0-.514 1.922Zm17.343-7.107a8.75 8.75 0 0 1 2.704.827 2.036 2.036 0 0 1 1.274 1.632 3.452 3.452 0 0 1-.357 1.474 9.883 9.883 0 0 1-.939 1.565l-15.466 22.394a6.285 6.285 0 0 1-2.391-.826 2.074 2.074 0 0 1-1.051-1.632 8.819 8.819 0 0 1 .112-1.408 4.278 4.278 0 0 1 .693-1.587Zm10.37 20.83a6.805 6.805 0 0 1-2.011 5.23 8.131 8.131 0 0 1-10.393 0 7.81 7.81 0 0 1 0-10.415 8.128 8.128 0 0 1 10.393 0 6.745 6.745 0 0 1 2.011 5.185Zm-8.984 0a3.172 3.172 0 0 0 .514 1.99 1.576 1.576 0 0 0 2.548 0 3.178 3.178 0 0 0 .514-1.99 2.997 2.997 0 0 0-.514-1.922 1.61 1.61 0 0 0-2.548 0 2.991 2.991 0 0 0-.514 1.922Z"/></svg>